<svg width="100" height="115" viewBox="0 0 100 115" fill="none" xmlns="http://www.w3.org/2000/svg">
<rect x="17" y="24" width="65" height="68" rx="5" fill="#E6F1F7"/>
<path d="M50 86.4684C58.6458 86.4684 66.0167 83.6288 72.1125 77.9496C78.2083 72.2705 81.2542 65.4054 81.25 57.3544C81.2458 49.3035 78.1979 42.4384 72.1062 36.7592C66.0146 31.0801 58.6458 28.2405 50 28.2405C41.3542 28.2405 33.9854 31.0801 27.8937 36.7592C21.8021 42.4384 18.7542 49.3035 18.75 57.3544C18.7458 65.4054 21.7937 72.2724 27.8937 77.9555C33.9937 83.6385 41.3625 86.4761 50 86.4684ZM53.125 56.1899L62.5 64.924C63.125 65.5063 63.4375 66.1857 63.4375 66.962C63.4375 67.7384 63.125 68.4177 62.5 69C61.875 69.5823 61.1458 69.8734 60.3125 69.8734C59.4792 69.8734 58.75 69.5823 58.125 69L48.75 60.2658C48.125 59.6835 47.6562 59.0295 47.3437 58.3035C47.0312 57.5776 46.875 56.8246 46.875 56.0443V42.7975C46.875 42.0211 47.1875 41.3418 47.8125 40.7595C48.4375 40.1772 49.1667 39.8861 50 39.8861C50.8333 39.8861 51.5625 40.1772 52.1875 40.7595C52.8125 41.3418 53.125 42.0211 53.125 42.7975V56.1899ZM50 115C49.2708 115 48.5937 114.951 47.9687 114.854C47.3437 114.757 46.7187 114.612 46.0937 114.418C32.0312 110.051 20.8333 101.972 12.5 90.1833C4.16667 78.3941 0 65.7043 0 52.1139V24.6013C0 22.1751 0.756249 19.9916 2.26875 18.0506C3.78125 16.1097 5.73333 14.7025 8.125 13.8291L45.625 0.727848C47.0833 0.242616 48.5417 0 50 0C51.4583 0 52.9167 0.242616 54.375 0.727848L91.875 13.8291C94.2708 14.7025 96.225 16.1097 97.7375 18.0506C99.25 19.9916 100.004 22.1751 100 24.6013V52.1139C100 65.7004 95.8333 78.3902 87.5 90.1833C79.1667 101.976 67.9687 110.055 53.9062 114.418C53.2812 114.612 52.6562 114.757 52.0312 114.854C51.4062 114.951 50.7292 115 50 115Z" fill="#E6F1F7"/>
<path d="M44.5436 71.9397H57.0462C57.8974 75.9567 61.1564 79 65.1205 79C69.0821 79 72.3436 75.9539 73.1923 71.9341C73.6812 71.9023 74.1405 71.6699 74.4764 71.2843C74.8123 70.8987 74.9996 70.3889 75 69.859V55.7356C75.0003 55.1925 74.8043 54.6708 74.4538 54.2819L68.0051 47.1301C67.3485 46.4015 66.5637 45.8225 65.6971 45.4271C64.8305 45.0316 63.8995 44.8278 62.959 44.8275H59.0872V40.8548C59.0872 39.5673 58.6144 38.3324 57.7729 37.4219C56.9314 36.5115 55.7901 36 54.6 36H29.4872C28.2971 36 27.1558 36.5115 26.3143 37.4219C25.4728 38.3324 25 39.5673 25 40.8548V69.859C25 71.0075 25.8615 71.9397 26.9231 71.9397H28.4C29.2513 75.9567 32.5103 79 36.4718 79C40.4333 79 43.6949 75.9595 44.5436 71.9397ZM32.0308 69.8563C32.0308 67.0543 34.0641 64.8738 36.4718 64.8738C38.8821 64.8738 40.9154 67.0543 40.9154 69.8535C40.9154 72.6554 38.8821 74.8359 36.4718 74.8359C34.0615 74.8359 32.0282 72.6554 32.0282 69.8535M60.6744 69.8535C60.6744 67.0515 62.7077 64.871 65.1179 64.871C67.5256 64.871 69.559 67.0515 69.559 69.8507C69.559 72.6526 67.5256 74.8332 65.1179 74.8332C62.7077 74.8332 60.6744 72.6554 60.6744 69.8535ZM43.9718 46.4032V49.871H47.1769C47.687 49.871 48.1761 50.0902 48.5367 50.4804C48.8974 50.8706 49.1 51.3998 49.1 51.9516C49.1 52.5034 48.8974 53.0327 48.5367 53.4228C48.1761 53.813 47.687 54.0323 47.1769 54.0323H43.9744V57.5C43.9744 58.0518 43.7718 58.581 43.4111 58.9712C43.0505 59.3614 42.5613 59.5806 42.0513 59.5806C41.5412 59.5806 41.0521 59.3614 40.6915 58.9712C40.3308 58.581 40.1282 58.0518 40.1282 57.5V54.0323H36.9231C36.413 54.0323 35.9239 53.813 35.5633 53.4228C35.2026 53.0327 35 52.5034 35 51.9516C35 51.3998 35.2026 50.8706 35.5633 50.4804C35.9239 50.0902 36.413 49.871 36.9231 49.871H40.1282V46.4032C40.1282 45.8514 40.3308 45.3222 40.6915 44.932C41.0521 44.5418 41.5412 44.3226 42.0513 44.3226C42.5613 44.3226 43.0505 44.5418 43.4111 44.932C43.7718 45.3222 43.9718 45.8514 43.9718 46.4032Z" fill="#1EBEB6"/>
</svg>
