<svg width="60" height="50" viewBox="0 0 60 50" fill="none" xmlns="http://www.w3.org/2000/svg">
<path d="M49.722 40.845C47.451 38.2175 41.169 31.285 36.012 25.58C38.1 23.0825 39.765 21.0425 40.527 19.975C45.162 13.49 43.149 9.32498 40.593 5.79998C38.031 2.27248 37.626 0.234985 30 0.234985C22.374 0.234985 21.966 2.27249 19.407 5.80249C16.845 9.32749 14.835 13.4925 19.47 19.9775C20.232 21.0425 21.897 23.085 23.988 25.5825C18.828 31.285 12.546 38.22 10.275 40.8475C9.74698 41.4575 9.79498 42.5075 10.302 43.5525C10.692 44.3575 12.192 47.9575 12.558 48.7125C13.026 49.685 14.55 50.3875 15.804 48.9425C16.527 48.1075 23.55 40.13 30 32.6375C36.447 40.1275 43.473 48.1075 44.196 48.9425C45.447 50.3875 46.974 49.685 47.442 48.7125C47.808 47.955 49.308 44.3575 49.698 43.5525C50.199 42.505 50.25 41.455 49.722 40.845ZM28.902 17.6575C25.698 13.9475 23.406 9.62998 23.406 9.62998C23.406 9.62998 24.666 7.73499 30 7.73499C35.334 7.73499 36.594 9.62998 36.594 9.62998C36.594 9.62998 34.296 13.9475 31.095 17.6575L30 18.9C29.6302 18.4881 29.2642 18.0739 28.902 17.6575Z" fill="#1EBEB6"/>
</svg>
