<svg width="100" height="115" viewBox="0 0 100 115" fill="none" xmlns="http://www.w3.org/2000/svg">
<rect x="17" y="24" width="65" height="68" rx="5" fill="#E6F1F7"/>
<path d="M50 86.4684C58.6458 86.4684 66.0167 83.6288 72.1125 77.9496C78.2083 72.2705 81.2542 65.4054 81.25 57.3544C81.2458 49.3035 78.1979 42.4384 72.1062 36.7592C66.0146 31.0801 58.6458 28.2405 50 28.2405C41.3542 28.2405 33.9854 31.0801 27.8937 36.7592C21.8021 42.4384 18.7542 49.3035 18.75 57.3544C18.7458 65.4054 21.7937 72.2724 27.8937 77.9555C33.9937 83.6385 41.3625 86.4761 50 86.4684ZM53.125 56.1899L62.5 64.924C63.125 65.5063 63.4375 66.1857 63.4375 66.962C63.4375 67.7384 63.125 68.4177 62.5 69C61.875 69.5823 61.1458 69.8734 60.3125 69.8734C59.4792 69.8734 58.75 69.5823 58.125 69L48.75 60.2658C48.125 59.6835 47.6562 59.0295 47.3437 58.3035C47.0312 57.5776 46.875 56.8246 46.875 56.0443V42.7975C46.875 42.0211 47.1875 41.3418 47.8125 40.7595C48.4375 40.1772 49.1667 39.8861 50 39.8861C50.8333 39.8861 51.5625 40.1772 52.1875 40.7595C52.8125 41.3418 53.125 42.0211 53.125 42.7975V56.1899ZM50 115C49.2708 115 48.5937 114.951 47.9687 114.854C47.3437 114.757 46.7187 114.612 46.0937 114.418C32.0312 110.051 20.8333 101.972 12.5 90.1833C4.16667 78.3941 0 65.7043 0 52.1139V24.6013C0 22.1751 0.756249 19.9916 2.26875 18.0506C3.78125 16.1097 5.73333 14.7025 8.125 13.8291L45.625 0.727848C47.0833 0.242616 48.5417 0 50 0C51.4583 0 52.9167 0.242616 54.375 0.727848L91.875 13.8291C94.2708 14.7025 96.225 16.1097 97.7375 18.0506C99.25 19.9916 100.004 22.1751 100 24.6013V52.1139C100 65.7004 95.8333 78.3902 87.5 90.1833C79.1667 101.976 67.9687 110.055 53.9062 114.418C53.2812 114.612 52.6562 114.757 52.0312 114.854C51.4062 114.951 50.7292 115 50 115Z" fill="#E6F1F7"/>
<path d="M69.8221 72.5347C67.5511 70.0414 61.2691 63.4632 56.1121 58.0498C58.2001 55.6799 59.8651 53.7441 60.6271 52.7312C65.2621 46.5776 63.2491 42.6255 60.6931 39.2806C58.1311 35.9334 57.7261 34 50.1001 34C42.4741 34 42.0661 35.9334 39.5071 39.283C36.9451 42.6278 34.9351 46.58 39.5701 52.7336C40.3321 53.7441 41.9971 55.6823 44.0881 58.0521C38.9281 63.4632 32.6461 70.0438 30.3751 72.537C29.8471 73.1159 29.8951 74.1122 30.4021 75.1038C30.7921 75.8676 32.2921 79.2837 32.6581 80.0001C33.1261 80.9229 34.6501 81.5895 35.9041 80.2183C36.6271 79.426 43.6501 71.8562 50.1001 64.7466C56.5471 71.8538 63.5731 79.426 64.2961 80.2183C65.5471 81.5895 67.0741 80.9229 67.5421 80.0001C67.9081 79.2813 69.4081 75.8676 69.7981 75.1038C70.2991 74.1098 70.3501 73.1135 69.8221 72.5347ZM49.0021 50.5321C45.7981 47.0117 43.5061 42.9149 43.5061 42.9149C43.5061 42.9149 44.7661 41.1167 50.1001 41.1167C55.4341 41.1167 56.6941 42.9149 56.6941 42.9149C56.6941 42.9149 54.3961 47.0117 51.1951 50.5321L50.1001 51.7111C49.7304 51.3203 49.3644 50.9273 49.0021 50.5321Z" fill="#1EBEB6"/>
</svg>
