<svg width="45" height="47" viewBox="0 0 45 47" fill="none" xmlns="http://www.w3.org/2000/svg">
<mask id="path-1-inside-1_154_18" fill="white">
<path fill-rule="evenodd" clip-rule="evenodd" d="M13.3112 5.30518L13.38 5.00518C13.5112 4.44768 13.7262 3.62768 14.17 2.82018C14.6225 1.99768 15.3237 1.16393 16.4237 0.61518C17.52 0.0689302 18.8937 -0.13482 20.5925 0.0901801C22.4675 0.34018 26.2337 0.96018 29.5612 2.65268C32.9075 4.35518 36.0425 7.28393 36.0425 12.1614C36.0425 14.6814 35.0675 17.3852 34.1225 19.1477C33.6687 19.9952 33.13 20.8052 32.59 21.2414C32.4662 21.3414 32.29 21.4664 32.0712 21.5539C31.4712 23.5259 30.2768 25.2644 28.6512 26.5317C27.0256 27.7991 25.0483 28.5334 22.9896 28.6344C20.9308 28.7354 18.8912 28.198 17.1494 27.0957C15.4076 25.9935 14.0488 24.3802 13.2587 22.4764L13.2287 22.4814L12.785 21.9427L12.7837 21.9402L12.7812 21.9377L12.775 21.9289L12.7537 21.9039C12.6469 21.7707 12.5439 21.6344 12.445 21.4952C12.1757 21.1204 11.9213 20.7351 11.6825 20.3402C11.095 19.3677 10.3862 17.9827 9.9325 16.3664C9.48 14.7502 9.2725 12.8552 9.7475 10.9002C10.21 8.99768 11.3012 7.12518 13.2775 5.45268L13.3112 5.30518ZM15.4112 21.1027C15.9534 22.6617 16.9944 23.9985 18.3732 24.906C19.752 25.8135 21.3915 26.2411 23.0378 26.1225C24.6842 26.0039 26.2455 25.3458 27.48 24.25C28.7144 23.1543 29.5532 21.6821 29.8662 20.0614L30.0075 20.1089C30.002 20.0382 29.9995 19.9673 30 19.8964C30 17.8277 29.7125 16.3839 29.445 15.4839C29.3925 15.3088 29.3346 15.1354 29.2712 14.9639L29.22 14.9664H29.17C28.2353 14.9865 27.3009 14.9153 26.38 14.7539C24.2337 14.3914 21.3275 13.4864 17.905 11.3902C17.83 11.5577 17.755 11.7464 17.68 11.9564C17.435 12.6502 17.2337 13.4739 17.06 14.3439C16.9062 15.1102 16.78 15.8814 16.66 16.6039L16.6137 16.8889C16.485 17.6639 16.3562 18.4252 16.2062 18.9764C15.9437 19.9339 15.6762 20.6139 15.4112 21.1014M13.6612 18.7727C13.0972 17.8033 12.6539 16.7685 12.3412 15.6914C11.9675 14.3589 11.83 12.9164 12.1775 11.4902C12.515 10.1027 13.3312 8.64393 15.01 7.26143C15.3125 7.05643 15.45 6.78143 15.4875 6.70768V6.70643C15.5525 6.57103 15.6053 6.43004 15.645 6.28518C15.685 6.14268 15.7287 5.94768 15.77 5.77268L15.8137 5.57643C15.9325 5.07268 16.0862 4.52393 16.3612 4.02268C16.6287 3.53768 16.995 3.12268 17.54 2.85143C18.0875 2.57768 18.935 2.39018 20.2625 2.56768C22.0787 2.80893 25.495 3.38768 28.4275 4.88018C31.34 6.36143 33.5425 8.60393 33.5425 12.1602C33.5425 13.7977 32.9925 15.6602 32.33 17.1289C32.205 16.1714 32.025 15.3889 31.84 14.7689C31.7097 14.3263 31.5489 13.8931 31.3587 13.4727C31.2859 13.3174 31.2066 13.1652 31.1212 13.0164L31.1 12.9827L31.0925 12.9702L31.0887 12.9639L31.0862 12.9602L30.6237 12.2427L29.7962 12.4089L29.7787 12.4127L29.6575 12.4289C29.4715 12.4498 29.2846 12.4623 29.0975 12.4664C28.3268 12.4812 27.5565 12.4209 26.7975 12.2864C24.7812 11.9464 21.8187 11.0202 18.22 8.62393L17.345 8.04018L16.6212 8.80268C16.025 9.43018 15.62 10.2864 15.3237 11.1202C15.0212 11.9764 14.7925 12.9327 14.6087 13.8502C14.4563 14.631 14.318 15.4144 14.1937 16.2002L14.1462 16.4802C14.0125 17.2939 13.9037 17.9152 13.7937 18.3177C13.7487 18.4835 13.7046 18.6352 13.6612 18.7727Z"/>
</mask>
<path d="M13.1029 22.3286L14.0679 21.5336L13.4321 20.7618L12.4671 21.5568L13.1029 22.3286ZM30.8159 12.5396L29.7659 13.2146L30.3066 14.0558L31.3566 13.3808L30.8159 12.5396ZM31.236 19.7474L31.241 19.7449L30.794 18.8504L30.789 18.8529L31.236 19.7474ZM13.3112 5.30518L12.3365 5.0818L12.3364 5.08213L13.3112 5.30518ZM13.38 5.00518L12.4066 4.77602L12.4053 4.7818L13.38 5.00518ZM14.17 2.82018L13.2938 2.33816L13.2936 2.33857L14.17 2.82018ZM16.4237 0.61518L15.9778 -0.279858L15.9773 -0.279653L16.4237 0.61518ZM20.5925 0.0901801L20.7247 -0.901048L20.7238 -0.901162L20.5925 0.0901801ZM29.5612 2.65268L30.0147 1.7614L30.0146 1.76136L29.5612 2.65268ZM34.1225 19.1477L33.2412 18.6751L33.2409 18.6757L34.1225 19.1477ZM32.59 21.2414L31.9616 20.4636L31.9615 20.4636L32.59 21.2414ZM32.0712 21.5539L31.6999 20.6255L31.2543 20.8037L31.1146 21.2628L32.0712 21.5539ZM13.2587 22.4764L14.1824 22.0931L13.8779 21.3595L13.0944 21.49L13.2587 22.4764ZM13.2287 22.4814L12.4569 23.1172L12.8238 23.5627L13.3931 23.4678L13.2287 22.4814ZM12.785 21.9427L11.8909 22.3906L11.9414 22.4914L12.0131 22.5785L12.785 21.9427ZM12.7837 21.9402L13.6778 21.4923L13.6054 21.3478L13.4912 21.2334L12.7837 21.9402ZM12.7812 21.9377L11.9676 22.519L12.0155 22.5861L12.0738 22.6445L12.7812 21.9377ZM12.775 21.9289L13.5887 21.3476L13.5642 21.3134L13.5369 21.2813L12.775 21.9289ZM12.7537 21.9039L11.9738 22.5298L11.9826 22.5408L11.9918 22.5516L12.7537 21.9039ZM12.445 21.4952L13.2603 20.9161L13.2571 20.9117L12.445 21.4952ZM11.6825 20.3402L10.8266 20.8573L10.8268 20.8577L11.6825 20.3402ZM9.9325 16.3664L8.96953 16.636L8.96972 16.6367L9.9325 16.3664ZM9.7475 10.9002L8.7758 10.664L8.77577 10.6641L9.7475 10.9002ZM13.2775 5.45268L13.9235 6.21601L14.178 6.00067L14.2523 5.67573L13.2775 5.45268ZM29.8662 20.0614L30.185 19.1136L29.1013 18.7492L28.8844 19.8718L29.8662 20.0614ZM30.0075 20.1089L29.6888 21.0568L31.122 21.5388L31.0045 20.0312L30.0075 20.1089ZM30 19.8964L31 19.9037V19.8964H30ZM29.445 15.4839L30.4036 15.199L30.4029 15.1969L29.445 15.4839ZM29.2712 14.9639L30.2093 14.6175L29.9552 13.9294L29.2225 13.9651L29.2712 14.9639ZM29.22 14.9664V15.9664H29.2444L29.2687 15.9652L29.22 14.9664ZM29.17 14.9664V13.9664H29.1593L29.1485 13.9667L29.17 14.9664ZM26.38 14.7539L26.5526 13.7689L26.5465 13.7679L26.38 14.7539ZM17.905 11.3902L18.4273 10.5374L17.4572 9.94325L16.9923 10.9815L17.905 11.3902ZM17.68 11.9564L16.7382 11.6201L16.7371 11.6234L17.68 11.9564ZM17.06 14.3439L18.0405 14.5407L18.0406 14.5398L17.06 14.3439ZM16.66 16.6039L15.6735 16.4401L15.6729 16.4438L16.66 16.6039ZM16.6137 16.8889L17.6002 17.0528L17.6008 17.0491L16.6137 16.8889ZM16.2062 18.9764L17.1707 19.2408L17.1712 19.239L16.2062 18.9764ZM13.6612 18.7727L12.7969 19.2756L13.9349 21.2314L14.615 19.0733L13.6612 18.7727ZM12.3412 15.6914L11.3784 15.9615L11.3809 15.9702L12.3412 15.6914ZM12.1775 11.4902L13.1491 11.7269L13.1492 11.7265L12.1775 11.4902ZM15.01 7.26143L14.449 6.43361L14.4103 6.45981L14.3743 6.4895L15.01 7.26143ZM15.4875 6.70768L16.3789 7.16093L16.4875 6.94732V6.70768H15.4875ZM15.4875 6.70643L14.5861 6.27339L14.4875 6.47868V6.70643H15.4875ZM15.645 6.28518L14.6822 6.01492L14.6806 6.02064L15.645 6.28518ZM15.77 5.77268L16.7434 6.00212L16.746 5.99027L15.77 5.77268ZM15.8137 5.57643L14.8404 5.34697L14.8377 5.35884L15.8137 5.57643ZM16.3612 4.02268L15.4856 3.53972L15.4845 3.54169L16.3612 4.02268ZM17.54 2.85143L17.9856 3.74668L17.9872 3.74586L17.54 2.85143ZM20.2625 2.56768L20.13 3.55886L20.1308 3.55897L20.2625 2.56768ZM28.4275 4.88018L27.9739 5.77139L27.9742 5.77153L28.4275 4.88018ZM32.33 17.1289L31.3384 17.2584L31.7941 20.7491L33.2416 17.5401L32.33 17.1289ZM31.84 14.7689L30.8807 15.0513L30.8817 15.0549L31.84 14.7689ZM31.3587 13.4727L32.27 13.0606L32.264 13.0478L31.3587 13.4727ZM31.1212 13.0164L31.9885 12.5186L31.9784 12.5009L31.9675 12.4836L31.1212 13.0164ZM31.1 12.9827L30.2424 13.4971L30.248 13.5064L30.2538 13.5155L31.1 12.9827ZM31.0925 12.9702L31.95 12.4558L31.95 12.4557L31.0925 12.9702ZM31.0887 12.9639L31.9462 12.4494L31.934 12.429L31.9207 12.4091L31.0887 12.9639ZM31.0862 12.9602L30.2457 13.502L30.25 13.5085L30.2543 13.515L31.0862 12.9602ZM30.6237 12.2427L31.4643 11.7009L31.095 11.128L30.4268 11.2623L30.6237 12.2427ZM29.7962 12.4089L29.5993 11.4284L29.5867 11.4311L29.7962 12.4089ZM29.7787 12.4127L29.9116 13.4038L29.9502 13.3986L29.9883 13.3905L29.7787 12.4127ZM29.6575 12.4289L29.769 13.4227L29.7797 13.4215L29.7903 13.4201L29.6575 12.4289ZM29.0975 12.4664L29.1167 13.4663L29.1194 13.4662L29.0975 12.4664ZM26.7975 12.2864L26.972 11.3017L26.9638 11.3004L26.7975 12.2864ZM18.22 8.62393L17.665 9.4558L17.6658 9.45629L18.22 8.62393ZM17.345 8.04018L17.9 7.20831L17.1994 6.74096L16.6197 7.35174L17.345 8.04018ZM16.6212 8.80268L17.3462 9.49151L17.3465 9.49112L16.6212 8.80268ZM15.3237 11.1202L14.3815 10.7854L14.3809 10.7871L15.3237 11.1202ZM14.6087 13.8502L13.6282 13.6538L13.6273 13.6586L14.6087 13.8502ZM14.1937 16.2002L15.1797 16.3674L15.1815 16.3563L14.1937 16.2002ZM14.1462 16.4802L13.1603 16.3129L13.1595 16.318L14.1462 16.4802ZM13.7937 18.3177L12.8291 18.0541L12.8286 18.0558L13.7937 18.3177ZM14.286 5.52856L14.3547 5.22856L12.4053 4.7818L12.3365 5.0818L14.286 5.52856ZM14.3534 5.23434C14.4797 4.69791 14.6702 3.98633 15.0464 3.30179L13.2936 2.33857C12.7823 3.26903 12.5428 4.19745 12.4066 4.77602L14.3534 5.23434ZM15.0462 3.3022C15.4249 2.6138 15.9923 1.94794 16.8701 1.51001L15.9773 -0.279653C14.6552 0.379916 13.8201 1.38156 13.2938 2.33816L15.0462 3.3022ZM16.8697 1.51022C17.7468 1.0732 18.9097 0.876027 20.4612 1.08152L20.7238 -0.901162C18.8778 -1.14567 17.2932 -0.935339 15.9778 -0.279858L16.8697 1.51022ZM20.4603 1.08141C22.3119 1.32829 25.938 1.93166 29.1079 3.54401L30.0146 1.76136C26.5295 -0.0113014 22.6231 -0.647927 20.7247 -0.901048L20.4603 1.08141ZM29.1078 3.54396C32.2823 5.1591 35.0425 7.81402 35.0425 12.1614H37.0425C37.0425 6.75384 33.5327 3.55126 30.0147 1.7614L29.1078 3.54396ZM35.0425 12.1614C35.0425 14.4611 34.1395 16.9997 33.2412 18.6751L35.0038 19.6202C35.9955 17.7707 37.0425 14.9018 37.0425 12.1614H35.0425ZM33.2409 18.6757C32.796 19.5067 32.3351 20.1618 31.9616 20.4636L33.2184 22.0193C33.9249 21.4486 34.5415 20.4837 35.0041 19.6197L33.2409 18.6757ZM31.9615 20.4636C31.8786 20.5306 31.7903 20.5893 31.6999 20.6255L32.4426 22.4824C32.7897 22.3436 33.0539 22.1523 33.2185 22.0192L31.9615 20.4636ZM31.1146 21.2628C30.5745 23.0377 29.4994 24.6024 28.0363 25.7431L29.2661 27.3204C31.0541 25.9263 32.3679 24.0141 33.0279 21.845L31.1146 21.2628ZM28.0363 25.7431C26.5733 26.8838 24.7936 27.5447 22.9406 27.6356L23.0386 29.6332C25.3031 29.5222 27.478 28.7144 29.2661 27.3204L28.0363 25.7431ZM22.9406 27.6356C21.0876 27.7265 19.2518 27.2428 17.6841 26.2507L16.6146 27.9408C18.5305 29.1532 20.774 29.7442 23.0386 29.6332L22.9406 27.6356ZM17.6841 26.2507C16.1165 25.2587 14.8935 23.8066 14.1824 22.0931L12.3351 22.8597C13.2042 24.9538 14.6988 26.7284 16.6146 27.9408L17.6841 26.2507ZM13.0944 21.49L13.0644 21.495L13.3931 23.4678L13.4231 23.4628L13.0944 21.49ZM14.0006 21.8457L13.5569 21.3069L12.0131 22.5785L12.4569 23.1172L14.0006 21.8457ZM13.6791 21.4948L13.6778 21.4923L11.8897 22.3881L11.8909 22.3906L13.6791 21.4948ZM13.4912 21.2334L13.4887 21.2309L12.0738 22.6445L12.0763 22.647L13.4912 21.2334ZM13.5949 21.3564L13.5887 21.3476L11.9613 22.5103L11.9676 22.519L13.5949 21.3564ZM13.5369 21.2813L13.5157 21.2563L11.9918 22.5516L12.0131 22.5766L13.5369 21.2813ZM13.5337 21.2781C13.439 21.1601 13.3478 21.0394 13.2602 20.9161L11.6298 22.0743C11.74 22.2294 11.8547 22.3813 11.9738 22.5298L13.5337 21.2781ZM13.2571 20.9117C13.0032 20.5583 12.7634 20.195 12.5382 19.8227L10.8268 20.8577C11.0793 21.2752 11.3482 21.6825 11.6329 22.0787L13.2571 20.9117ZM12.5384 19.8231C11.9813 18.9008 11.3175 17.5999 10.8953 16.0961L8.96972 16.6367C9.45504 18.3654 10.2087 19.8345 10.8266 20.8573L12.5384 19.8231ZM10.8955 16.0968C10.4749 14.5946 10.2956 12.8799 10.7192 11.1363L8.77577 10.6641C8.24942 12.8304 8.4851 14.9057 8.96953 16.636L10.8955 16.0968ZM10.7192 11.1364C11.1285 9.45263 12.0984 7.76061 13.9235 6.21601L12.6315 4.68935C10.5041 6.48975 9.29147 8.54273 8.7758 10.664L10.7192 11.1364ZM14.2523 5.67573L14.2861 5.52823L12.3364 5.08213L12.3027 5.22963L14.2523 5.67573ZM14.4667 21.4311C15.0811 23.1979 16.2609 24.7129 17.8234 25.7413L18.923 24.0707C17.728 23.2842 16.8257 22.1255 16.3558 20.7742L14.4667 21.4311ZM17.8234 25.7413C19.3859 26.7698 21.2439 27.2543 23.1097 27.1199L22.966 25.1251C21.539 25.2279 20.118 24.8573 18.923 24.0707L17.8234 25.7413ZM23.1097 27.1199C24.9754 26.9855 26.7448 26.2397 28.1438 24.9979L26.8161 23.5021C25.7462 24.4519 24.3929 25.0223 22.966 25.1251L23.1097 27.1199ZM28.1438 24.9979C29.5428 23.7561 30.4933 22.0877 30.8481 20.2511L28.8844 19.8718C28.613 21.2764 27.8861 22.5524 26.8161 23.5021L28.1438 24.9979ZM29.5475 21.0093L29.6888 21.0568L30.3262 19.1611L30.185 19.1136L29.5475 21.0093ZM31.0045 20.0312C31.0012 19.9888 30.9997 19.9462 31 19.9037L29 19.8892C28.9993 19.9884 29.0028 20.0877 29.0105 20.1867L31.0045 20.0312ZM31 19.8964C31 17.7333 30.6991 16.1935 30.4036 15.199L28.4864 15.7688C28.7259 16.5743 29 17.922 29 19.8964H31ZM30.4029 15.1969C30.3444 15.0018 30.2799 14.8085 30.2093 14.6175L28.3332 15.3104C28.3893 15.4623 28.4406 15.6159 28.4871 15.771L30.4029 15.1969ZM29.2225 13.9651L29.1713 13.9676L29.2687 15.9652L29.32 15.9627L29.2225 13.9651ZM29.22 13.9664H29.17V15.9664H29.22V13.9664ZM29.1485 13.9667C28.2789 13.9853 27.4094 13.9191 26.5526 13.7689L26.2074 15.7389C27.1923 15.9115 28.1917 15.9877 29.1915 15.9662L29.1485 13.9667ZM26.5465 13.7679C24.5268 13.4268 21.7413 12.5672 18.4273 10.5374L17.3827 12.2429C20.9137 14.4057 23.9407 15.3561 26.2135 15.74L26.5465 13.7679ZM16.9923 10.9815C16.9047 11.1771 16.8202 11.3906 16.7383 11.6201L18.6217 12.2928C18.6898 12.1023 18.7553 11.9382 18.8177 11.7988L16.9923 10.9815ZM16.7371 11.6234C16.4693 12.3817 16.2571 13.258 16.0794 14.1481L18.0406 14.5398C18.2104 13.6899 18.4007 12.9187 18.6229 12.2894L16.7371 11.6234ZM16.0795 14.1472C15.9218 14.9332 15.7927 15.7225 15.6735 16.4401L17.6465 16.7678C17.7673 16.0404 17.8907 15.2871 18.0405 14.5407L16.0795 14.1472ZM15.6729 16.4438L15.6267 16.7288L17.6008 17.0491L17.6471 16.7641L15.6729 16.4438ZM15.6273 16.725C15.4958 17.5161 15.3752 18.2218 15.2413 18.7139L17.1712 19.239C17.3373 18.6285 17.4742 17.8117 17.6002 17.0528L15.6273 16.725ZM15.2418 18.712C14.9917 19.6245 14.7489 20.2261 14.5327 20.6238L16.2898 21.579C16.6036 21.0018 16.8958 20.2433 17.1707 19.2408L15.2418 18.712ZM14.5256 18.2698C14.0026 17.3709 13.5915 16.4114 13.3016 15.4126L11.3809 15.9702C11.7163 17.1256 12.1919 18.2357 12.7969 19.2756L14.5256 18.2698ZM13.3041 15.4214C12.9624 14.2031 12.8532 12.9413 13.1491 11.7269L11.2059 11.2535C10.8068 12.8916 10.9726 14.5148 11.3784 15.9615L13.3041 15.4214ZM13.1492 11.7265C13.4322 10.5629 14.1227 9.28758 15.6457 8.03336L14.3743 6.4895C12.5398 8.00028 11.5978 9.6425 11.2058 11.2538L13.1492 11.7265ZM15.571 8.08925C16.0939 7.73489 16.3259 7.26507 16.3789 7.16093L14.5961 6.25443C14.5741 6.29779 14.5311 6.37797 14.449 6.43361L15.571 8.08925ZM16.4875 6.70768V6.70643H14.4875V6.70768H16.4875ZM16.3889 7.13947C16.4799 6.94992 16.5537 6.75254 16.6094 6.54972L14.6806 6.02064C14.6568 6.10755 14.6252 6.19214 14.5861 6.27339L16.3889 7.13947ZM16.6078 6.55544C16.6553 6.38608 16.707 6.1564 16.7433 6.00211L14.7967 5.54325C14.7505 5.73897 14.7147 5.89928 14.6822 6.01492L16.6078 6.55544ZM16.746 5.99027L16.7898 5.79402L14.8377 5.35884L14.794 5.55509L16.746 5.99027ZM16.7871 5.80587C16.9012 5.32177 17.0305 4.88175 17.238 4.50368L15.4845 3.54169C15.142 4.16611 14.9638 4.82359 14.8404 5.34699L16.7871 5.80587ZM17.2369 4.50564C17.4306 4.15435 17.663 3.90723 17.9856 3.74668L17.0944 1.95618C16.327 2.33813 15.8269 2.92101 15.4856 3.53972L17.2369 4.50564ZM17.9872 3.74586C18.3153 3.5818 18.9513 3.40125 20.13 3.55886L20.395 1.5765C18.9187 1.37911 17.8597 1.57356 17.0928 1.957L17.9872 3.74586ZM20.1308 3.55897C21.9236 3.79711 25.1993 4.35926 27.9739 5.77139L28.8811 3.98897C25.7907 2.4161 22.2339 1.82076 20.3942 1.57639L20.1308 3.55897ZM27.9742 5.77153C30.71 7.16291 32.5425 9.13019 32.5425 12.1602H34.5425C34.5425 8.07768 31.97 5.55995 28.8808 3.98884L27.9742 5.77153ZM32.5425 12.1602C32.5425 13.6057 32.0476 15.323 31.4184 16.7178L33.2416 17.5401C33.9374 15.9974 34.5425 13.9896 34.5425 12.1602H32.5425ZM33.3216 16.9995C33.1896 15.9888 32.9985 15.154 32.7982 14.483L30.8817 15.0549C31.0515 15.6239 31.2204 16.3541 31.3384 17.2584L33.3216 16.9995ZM32.7993 14.4865C32.6559 13.9996 32.4791 13.5232 32.2699 13.0607L30.4476 13.8847C30.6187 14.2631 30.7634 14.6529 30.8807 15.0513L32.7993 14.4865ZM32.264 13.0478C32.1795 12.8677 32.0876 12.6911 31.9885 12.5186L30.254 13.5143C30.3257 13.6392 30.3923 13.7671 30.4535 13.8975L32.264 13.0478ZM31.9675 12.4836L31.9462 12.4499L30.2538 13.5155L30.275 13.5493L31.9675 12.4836ZM31.9575 12.4683L31.95 12.4558L30.2349 13.4846L30.2424 13.4971L31.9575 12.4683ZM31.95 12.4557L31.9462 12.4494L30.2313 13.4785L30.235 13.4847L31.95 12.4557ZM31.9207 12.4091L31.9182 12.4054L30.2543 13.515L30.2568 13.5188L31.9207 12.4091ZM31.9268 12.4184L31.4643 11.7009L29.7832 12.7845L30.2457 13.502L31.9268 12.4184ZM30.4268 11.2623L29.5993 11.4285L29.9932 13.3893L30.8207 13.2231L30.4268 11.2623ZM29.5867 11.4311L29.5692 11.4349L29.9883 13.3905L30.0058 13.3867L29.5867 11.4311ZM29.6459 11.4215L29.5247 11.4378L29.7903 13.4201L29.9116 13.4038L29.6459 11.4215ZM29.546 11.4352C29.3897 11.4527 29.2327 11.4632 29.0755 11.4667L29.1194 13.4662C29.3365 13.4614 29.5533 13.4469 29.769 13.4227L29.546 11.4352ZM29.0783 11.4666C28.3725 11.4802 27.6671 11.425 26.972 11.3018L26.623 13.2711C27.4459 13.4169 28.2811 13.4823 29.1167 13.4662L29.0783 11.4666ZM26.9638 11.3004C25.0879 10.984 22.2573 10.1108 18.7742 7.79157L17.6658 9.45629C21.3802 11.9296 24.4746 12.9088 26.6312 13.2725L26.9638 11.3004ZM18.775 7.79206L17.9 7.20831L16.79 8.87205L17.665 9.4558L18.775 7.79206ZM16.6197 7.35174L15.896 8.11424L17.3465 9.49112L18.0703 8.72862L16.6197 7.35174ZM15.8963 8.11386C15.1565 8.89249 14.6944 9.90477 14.3815 10.7854L16.266 11.455C16.5456 10.6681 16.8935 9.96787 17.3462 9.49151L15.8963 8.11386ZM14.3809 10.7871C14.0556 11.7078 13.8159 12.7165 13.6282 13.6538L15.5893 14.0466C15.7691 13.1489 15.9869 12.2451 16.2666 11.4533L14.3809 10.7871ZM13.6273 13.6586C13.4725 14.4511 13.3321 15.2464 13.206 16.044L15.1815 16.3563C15.3038 15.5824 15.4401 14.8108 15.5902 14.0418L13.6273 13.6586ZM13.2078 16.0329L13.1603 16.3129L15.1322 16.6474L15.1797 16.3674L13.2078 16.0329ZM13.1595 16.318C13.0232 17.1473 12.9226 17.7121 12.8291 18.0541L14.7584 18.5813C14.8849 18.1182 15.0018 17.4406 15.133 16.6424L13.1595 16.318ZM12.8286 18.0558C12.7865 18.211 12.7461 18.3496 12.7075 18.4721L14.615 19.0733C14.6631 18.9208 14.711 18.756 14.7588 18.5796L12.8286 18.0558Z" fill="white" mask="url(#path-1-inside-1_154_18)"/>
<path d="M31.25 28.6638C30.6213 28.5201 29.9713 29.3851 29.6875 29.9263L31.25 28.6638ZM31.25 28.6638C32.6625 28.9838 34.085 29.4338 35.4512 29.9838L31.25 28.6638ZM33.7879 33.3899C33.8607 32.8549 33.8959 32.3205 33.8797 31.8576L33.8677 31.5157L33.5447 31.403C32.997 31.2119 32.4446 31.0391 31.8874 30.8845L31.4987 30.7767L31.3111 31.1338L30.8941 31.9276M33.7879 33.3899L33.2926 33.3226L33.7882 33.3884C33.7881 33.3889 33.788 33.3894 33.7879 33.3899ZM33.7879 33.3899C33.7136 33.9494 33.5943 34.5019 33.4312 35.0421L33.3238 35.3976H32.9525H31.2503M31.2503 35.3976L31.25 34.8976M31.2503 35.3976C31.111 35.3977 30.9745 35.4365 30.8561 35.5098C30.7377 35.583 30.642 35.6878 30.5798 35.8123L30.5797 35.8125L29.3297 38.3125L29.3295 38.3129C29.2773 38.4169 29.2501 38.5317 29.25 38.6481V41.1476C29.25 41.3465 29.329 41.5373 29.4697 41.6779C29.6103 41.8186 29.8011 41.8976 30 41.8976H32V40.3976H31.25H30.75V39.8976V38.9426V38.8246L30.8028 38.719L31.5753 37.174L31.7135 36.8976H32.0225H35.4775H35.7865L35.9247 37.174L36.6972 38.719L36.75 38.8246V38.9426V39.8976V40.3976H36.25H35.5V41.8976H37.5C37.6989 41.8976 37.8897 41.8186 38.0303 41.6779C38.171 41.5373 38.25 41.3465 38.25 41.1476V38.6481C38.2499 38.5317 38.2227 38.4169 38.1705 38.3129L38.1703 38.3125L36.9203 35.8125L36.9202 35.8123C36.858 35.6878 36.7623 35.583 36.6439 35.5098C36.5255 35.4365 36.389 35.3977 36.2497 35.3976H35.5425H34.9138L35.0553 34.7851C35.2026 34.1473 35.3025 33.4995 35.3541 32.847L35.4111 32.1246L36.0662 32.4343C37.3095 33.0222 38.4697 33.699 39.4795 34.4347L39.4797 34.4349C41.922 36.2165 43 37.9865 43 39.3601V43.6476V44.1476H42.5H2.5H2V43.6476V39.3601C2 37.9865 3.07797 36.2165 5.52034 34.4349C6.76317 33.5279 8.2385 32.7126 9.81233 32.0403L10.477 31.7564L10.5083 32.4785C10.5497 33.4355 10.7033 34.3843 10.9659 35.3056L10.9758 35.3402L11.0786 35.7001L10.7623 35.9001C10.1147 36.3099 9.63263 36.9353 9.40136 37.6659C9.17009 38.3966 9.20447 39.1855 9.49841 39.8932C9.79236 40.601 10.327 41.1821 11.0078 41.5339C11.6886 41.8858 12.4719 41.9857 13.2193 41.816C13.9666 41.6464 14.63 41.2181 15.0922 40.6068C15.5544 39.9955 15.7858 39.2405 15.7453 38.4752C15.7049 37.7099 15.3953 36.9835 14.8713 36.4243C14.3472 35.8651 13.6424 35.5091 12.8813 35.4191L12.5572 35.3808L12.4618 35.0687L12.4068 34.8887L12.4039 34.8791L12.404 34.8791C12.2655 34.3912 12.1626 33.8939 12.096 33.3911C12.0222 32.8798 11.9914 32.3632 12.0039 31.8468L12.0041 31.839L12.0041 31.839C12.0086 31.7264 12.0155 31.6224 12.0251 31.5281L12.0586 31.1995L12.374 31.1014C12.528 31.0535 12.6821 31.0077 12.8362 30.964L13.2257 30.8537L13.4147 31.2116L13.7927 31.9276M31.2503 35.3976H31.25V34.8976M31.25 34.8976H32.9525C33.108 34.3826 33.2217 33.8559 33.2925 33.3226C33.3625 32.8076 33.395 32.3026 33.38 31.8751C32.8425 31.6876 32.3004 31.518 31.7537 31.3663L31.1963 32.4276M31.25 34.8976C31.0179 34.8977 30.7905 34.9624 30.5931 35.0845C30.3957 35.2066 30.2362 35.3812 30.1325 35.5888L28.8825 38.0888C28.7956 38.2623 28.7502 38.4536 28.75 38.6476V41.1476C28.75 41.4791 28.8817 41.7971 29.1161 42.0315C29.3505 42.2659 29.6685 42.3976 30 42.3976H32L13.7927 31.9276M31.1963 32.4276V31.9276H30.8941M31.1963 32.4276H13.4912H31.1963ZM30.8941 31.9276H13.7927M30.8941 31.9276H13.7927M14.4457 29.9408L14.4457 29.9408L14.4474 29.9442L14.5549 30.1542L14.6942 30.4263H15H29.6875H29.9899L30.1303 30.1585C30.2552 29.9203 30.4589 29.617 30.6859 29.3986C30.9361 29.1581 31.0851 29.1391 31.1386 29.1513L31.1395 29.1515C32.5246 29.4653 33.9217 29.9071 35.2645 30.4477L35.3049 30.4639L35.3281 30.4734C37.8595 31.5013 40.1737 32.8802 41.846 34.44C43.5265 36.0074 44.5 37.6997 44.5 39.3601V45.6476H0.5V39.3601C0.5 37.2463 2.08146 35.0866 4.63657 33.2225C7.16797 31.3756 10.541 29.907 13.861 29.1514L13.8616 29.1512C13.8625 29.151 13.8635 29.1508 13.8645 29.1505C13.8838 29.1455 13.9308 29.1333 14.0499 29.2714C14.1852 29.4283 14.3057 29.6621 14.4457 29.9408ZM12.5 40.4176C13.4464 40.4176 14.25 39.646 14.25 38.6488C14.25 37.6533 13.4467 36.8801 12.5 36.8801C11.5536 36.8801 10.75 37.6517 10.75 38.6488C10.75 39.6444 11.5533 40.4176 12.5 40.4176Z" stroke="white"/>
</svg>
