<svg width="38" height="48" viewBox="0 0 38 48" fill="none" xmlns="http://www.w3.org/2000/svg">
<path d="M12.9922 12.578C13.1641 12.8124 13.4141 12.9218 13.6797 12.9218C13.8516 12.9218 14.0234 12.8749 14.1797 12.7499L14.1953 12.7389C14.3203 12.6593 15.0703 12.1655 16.1484 12.2968C16.6172 12.3593 17.0391 12.0155 17.1016 11.5624C17.1484 11.0936 16.8203 10.6718 16.3516 10.6093C14.4922 10.3905 13.1953 11.3593 13.1484 11.4061C13.0604 11.4722 12.9863 11.5551 12.9307 11.6501C12.875 11.745 12.8389 11.8502 12.8243 11.9593C12.8098 12.0684 12.8171 12.1793 12.846 12.2855C12.8748 12.3918 12.9245 12.4912 12.9922 12.578ZM24.3359 12.9218C24.1641 12.9218 23.9766 12.8593 23.8203 12.7499L23.8141 12.7468C23.2339 12.369 22.5384 12.2095 21.8516 12.2968C21.6335 12.3086 21.4192 12.2371 21.252 12.0966C21.0848 11.9561 20.9774 11.7573 20.9515 11.5404C20.9257 11.3236 20.9833 11.1051 21.1128 10.9292C21.2422 10.7534 21.4337 10.6334 21.6484 10.5936C23.5234 10.3749 24.8047 11.3436 24.8516 11.3905C25.2266 11.6718 25.2891 12.2186 25.0078 12.5936C24.8359 12.8124 24.5859 12.9218 24.3359 12.9218ZM17.6016 17.8124L18.4141 15.203C18.6016 14.6405 19.3984 14.6405 19.5859 15.203L20.3828 17.8124C20.5391 18.3436 20.1484 18.8905 19.5859 18.8905H18.3984C17.8359 18.8905 17.4297 18.3436 17.6016 17.8124ZM18.9922 20.4218C18.1484 20.4218 17.3672 20.2186 16.6953 19.8749C16.4766 19.7499 16.2266 20.0155 16.3672 20.2343C16.9297 21.0936 17.8828 21.6561 18.9922 21.6561C20.1016 21.6561 21.0547 21.0936 21.6172 20.2343C21.7578 20.0155 21.5078 19.7655 21.2891 19.8749C20.6172 20.2186 19.8359 20.4218 18.9922 20.4218ZM13.1641 15.1561C13.3984 14.2186 14.2578 13.5155 15.2734 13.5155C16.3359 13.5155 17.2109 14.2811 17.4141 15.2655C17.4453 15.4843 17.2734 15.6874 17.0547 15.6874H16.9328C16.9613 15.5697 16.976 15.4491 16.9766 15.328C16.9793 15.146 16.9457 14.9652 16.8777 14.7963C16.8098 14.6274 16.7088 14.4737 16.5808 14.3442C16.4528 14.2148 16.3003 14.1121 16.1321 14.0422C15.964 13.9724 15.7836 13.9367 15.6016 13.9374C15.3882 13.9375 15.1777 13.9865 14.9864 14.0808C14.795 14.1751 14.6278 14.312 14.4976 14.4811C14.3675 14.6501 14.278 14.8468 14.2358 15.056C14.1937 15.2651 14.2002 15.4811 14.2547 15.6874H13.5859C13.521 15.6866 13.457 15.6713 13.3987 15.6427C13.3404 15.6141 13.2892 15.5729 13.2488 15.522C13.2084 15.4711 13.1798 15.4119 13.1652 15.3486C13.1505 15.2853 13.1501 15.2196 13.1641 15.1561ZM24.8359 15.1561C24.6016 14.2186 23.7422 13.5155 22.7266 13.5155C21.6641 13.5155 20.7891 14.2811 20.5859 15.2655C20.5547 15.4843 20.7266 15.6874 20.9453 15.6874H21.0672C21.0387 15.5697 21.0241 15.4491 21.0234 15.328C21.0078 14.5624 21.6328 13.9374 22.3984 13.9374C22.6118 13.9375 22.8223 13.9865 23.0137 14.0808C23.205 14.1751 23.3722 14.312 23.5024 14.4811C23.6325 14.6501 23.7221 14.8468 23.7642 15.056C23.8063 15.2651 23.7999 15.4811 23.7453 15.6874H24.4141C24.6953 15.6874 24.8984 15.4218 24.8359 15.1561Z" fill="black"/>
<path d="M16.3984 15.3284C16.3974 15.1979 16.3643 15.0695 16.3022 14.9547C16.2401 14.8398 16.1509 14.7418 16.0422 14.6694C15.9336 14.597 15.8088 14.5522 15.6789 14.5391C15.549 14.526 15.4178 14.5448 15.2969 14.5941C15.3242 14.6175 15.3462 14.6466 15.3612 14.6794C15.3763 14.7121 15.3841 14.7477 15.3841 14.7838C15.3841 14.8198 15.3763 14.8554 15.3613 14.8882C15.3462 14.921 15.3243 14.9501 15.2969 14.9735C15.2696 14.997 15.2375 15.0143 15.2028 15.0242C15.1682 15.0341 15.1318 15.0364 15.0962 15.0309C15.0605 15.0255 15.0265 15.0124 14.9964 14.9925C14.9664 14.9727 14.9409 14.9465 14.9219 14.9159C14.8485 15.0334 14.8077 15.1682 14.8036 15.3065C14.7995 15.4449 14.8322 15.5819 14.8984 15.7034H16.3047C16.3672 15.5784 16.3984 15.4534 16.3984 15.3284ZM22.125 14.58C22.2764 14.5264 22.4404 14.5197 22.5956 14.5606C22.7509 14.6015 22.8903 14.6882 22.9957 14.8093C23.101 14.9305 23.1674 15.0806 23.1863 15.2401C23.2052 15.3995 23.1757 15.561 23.1016 15.7034H21.6953C21.6266 15.5743 21.5947 15.4287 21.6033 15.2826C21.6118 15.1365 21.6604 14.9956 21.7437 14.8753C21.7584 14.9109 21.7811 14.9426 21.81 14.9679C21.839 14.9932 21.8734 15.0116 21.9105 15.0215C21.9477 15.0314 21.9867 15.0325 22.0244 15.0249C22.0621 15.0173 22.0975 15.0011 22.1279 14.9775C22.1583 14.954 22.1829 14.9237 22.1997 14.8891C22.2165 14.8545 22.2251 14.8165 22.2248 14.778C22.2245 14.7396 22.2154 14.7017 22.1981 14.6674C22.1807 14.633 22.1557 14.6031 22.125 14.58Z" fill="black"/>
<mask id="path-3-inside-1_154_15" fill="white">
<path d="M36.1641 47.4579H1.8125C1.3981 47.4579 1.00067 47.2933 0.707646 47.0003C0.41462 46.7072 0.25 46.3098 0.25 45.8954C0.25 43.0829 0.25 37.2563 1.82344 33.2392C3.29568 29.2442 6.07535 25.8643 9.71094 23.6485C9.3929 22.9666 9.19166 22.2362 9.11562 21.4876L8.9125 18.8126C8.44355 18.4259 8.0655 17.9407 7.80518 17.3914C7.54486 16.8421 7.40866 16.2423 7.40625 15.6345C7.40109 14.704 7.71548 13.8 8.29687 13.0735L7.61875 9.35165C7.43984 8.36908 7.58491 7.35499 8.03212 6.46198C8.47932 5.56898 9.20448 4.84538 10.0984 4.40009L10.7547 4.07196C11.0755 3.91571 11.362 3.71103 11.6141 3.4579L13.1969 1.8954C13.8468 1.23952 14.6837 0.800668 15.5928 0.638987C16.5019 0.477306 17.4388 0.600706 18.275 0.992278C18.7516 1.14228 19.2641 1.1329 19.7328 0.96259C20.6421 0.640716 21.6241 0.583644 22.5646 0.798016C23.5051 1.01239 24.3653 1.48939 25.0453 2.17353L26.325 3.45478C26.5833 3.70165 26.8703 3.90582 27.1859 4.06728L27.8422 4.3954C28.7322 4.84612 29.4512 5.5743 29.8907 6.46987C30.3302 7.36545 30.4662 8.37975 30.2781 9.35946L29.6094 13.0267C29.9533 13.4451 30.2109 13.9275 30.3675 14.446C30.5241 14.9645 30.5766 15.5089 30.5218 16.0477C30.4671 16.5866 30.3062 17.1093 30.0485 17.5857C29.7908 18.0621 29.4413 18.4828 29.0203 18.8235L28.8219 21.4392C28.7347 22.2892 28.4932 23.1163 28.1094 23.8798C31.6174 26.0713 34.3 29.3638 35.7375 33.2423C37.2352 37.2841 37.9098 41.5845 37.7219 45.8907C37.7225 46.0959 37.6827 46.2992 37.6047 46.489C37.5268 46.6788 37.4122 46.8514 37.2675 46.9969C37.1229 47.1425 36.951 47.2581 36.7616 47.3372C36.5723 47.4163 36.3693 47.4573 36.1641 47.4579ZM19.3906 44.3329H34.5953C34.6375 40.9319 34.0374 37.5535 32.8266 34.3751C31.4647 30.6043 28.6726 27.5214 25.0547 25.7938C25.1953 26.3251 25.2661 26.8782 25.2672 27.4532V36.7423C25.6871 36.9154 26.0342 37.2284 26.2497 37.6283C26.4652 38.0281 26.5358 38.4901 26.4496 38.9361C26.3633 39.382 26.1256 39.7844 25.7766 40.0751C25.4276 40.3658 24.9888 40.5268 24.5347 40.531C24.0805 40.5352 23.6388 40.3822 23.2846 40.0979C22.9303 39.8137 22.6852 39.4157 22.5908 38.9714C22.4965 38.5271 22.5586 38.0639 22.7667 37.6602C22.9749 37.2565 23.3162 36.9372 23.7328 36.7563V27.4532C23.7307 26.947 23.6604 26.4626 23.5219 26.0001C23.2281 26.1064 22.9267 26.1905 22.6203 26.2517L19.4375 33.6579L19.4297 33.6876C19.4147 33.733 19.4068 33.7804 19.4062 33.8282H19.3906V44.3329ZM18.75 28.0157C19.9719 28.0157 21.0375 27.3485 21.6016 26.3595H16.4922C16.2859 26.3595 16.0823 26.349 15.8812 26.3282C16.1655 26.8398 16.5814 27.266 17.0858 27.5627C17.5902 27.8594 18.1648 28.0158 18.75 28.0157ZM21.4922 24.797C22.1875 24.797 22.8437 24.6345 23.4234 24.3391L24.1828 23.8407C24.3626 23.6895 24.5308 23.525 24.6859 23.3485C25.2531 22.6892 25.6312 21.8345 25.7297 20.8563L26.3234 12.3985C26.3278 12.3029 26.3107 12.2075 26.2734 12.1194C26.2361 12.0312 26.1795 11.9526 26.1078 11.8892L25.7734 11.6032C25.4966 11.357 25.2754 11.0546 25.1246 10.7162C24.9737 10.3778 24.8966 10.0112 24.8984 9.64071V8.29696C24.8964 8.27196 24.8927 8.2579 24.8875 8.25478L24.8812 8.25009L24.8656 8.24228C23.9156 8.00634 21.8547 7.59384 18.975 7.59384C16.1047 7.59384 14.0469 8.00321 13.0953 8.24071C13.0852 8.24562 13.0765 8.25318 13.0703 8.26259C13.0617 8.27216 13.0562 8.28417 13.0547 8.29696V9.65634C13.0547 10.3829 12.7484 11.1173 12.1797 11.6188L12.1672 11.6298L11.8828 11.8688C11.8078 11.9379 11.7492 12.0229 11.7111 12.1175C11.673 12.212 11.6564 12.3139 11.6625 12.4157L12.2562 20.8563C12.4875 23.1813 14.2984 24.797 16.4922 24.797H21.4922ZM14.8766 26.136C14.5408 26.0397 14.2145 25.9131 13.9016 25.7579C13.7141 26.2876 13.6094 26.8579 13.6094 27.4532V29.897C14.5751 30.0759 15.4477 30.5874 16.0757 31.3426C16.7036 32.0978 17.0472 33.0491 17.0469 34.0313V39.7032C17.0469 40.2673 16.5937 40.7188 16.0312 40.7188H14.5781C14.3751 40.7188 14.1803 40.6382 14.0367 40.4946C13.8932 40.351 13.8125 40.1563 13.8125 39.9532C13.8125 39.7502 13.8932 39.5554 14.0367 39.4118C14.1803 39.2683 14.3751 39.1876 14.5781 39.1876H15.5156V34.0313C15.5156 33.3227 15.2341 32.6431 14.733 32.142C14.232 31.641 13.5524 31.3595 12.8437 31.3595C12.1351 31.3595 11.4555 31.641 10.9544 32.142C10.4534 32.6431 10.1719 33.3227 10.1719 34.0313V39.1876H11.2187C11.4218 39.1876 11.6165 39.2683 11.7601 39.4118C11.9037 39.5554 11.9844 39.7502 11.9844 39.9532C11.9844 40.1563 11.9037 40.351 11.7601 40.4946C11.6165 40.6382 11.4218 40.7188 11.2187 40.7188H9.65625C9.38689 40.7188 9.12856 40.6118 8.93809 40.4214C8.74763 40.2309 8.64062 39.9726 8.64062 39.7032V34.0313C8.64062 31.9642 10.1281 30.2579 12.0781 29.897V27.4532C12.0781 26.8959 12.1443 26.3579 12.2766 25.8392C8.75688 27.6095 6.05502 30.6684 4.73281 34.3798C3.74909 37.603 3.2932 40.9641 3.38281 44.3329H18.1562V39.4376H18.1406V33.8282C18.1383 33.7697 18.1278 33.7119 18.1094 33.6563L14.8766 26.136Z"/>
</mask>
<path d="M36.1641 47.4579H1.8125C1.3981 47.4579 1.00067 47.2933 0.707646 47.0003C0.41462 46.7072 0.25 46.3098 0.25 45.8954C0.25 43.0829 0.25 37.2563 1.82344 33.2392C3.29568 29.2442 6.07535 25.8643 9.71094 23.6485C9.3929 22.9666 9.19166 22.2362 9.11562 21.4876L8.9125 18.8126C8.44355 18.4259 8.0655 17.9407 7.80518 17.3914C7.54486 16.8421 7.40866 16.2423 7.40625 15.6345C7.40109 14.704 7.71548 13.8 8.29687 13.0735L7.61875 9.35165C7.43984 8.36908 7.58491 7.35499 8.03212 6.46198C8.47932 5.56898 9.20448 4.84538 10.0984 4.40009L10.7547 4.07196C11.0755 3.91571 11.362 3.71103 11.6141 3.4579L13.1969 1.8954C13.8468 1.23952 14.6837 0.800668 15.5928 0.638987C16.5019 0.477306 17.4388 0.600706 18.275 0.992278C18.7516 1.14228 19.2641 1.1329 19.7328 0.96259C20.6421 0.640716 21.6241 0.583644 22.5646 0.798016C23.5051 1.01239 24.3653 1.48939 25.0453 2.17353L26.325 3.45478C26.5833 3.70165 26.8703 3.90582 27.1859 4.06728L27.8422 4.3954C28.7322 4.84612 29.4512 5.5743 29.8907 6.46987C30.3302 7.36545 30.4662 8.37975 30.2781 9.35946L29.6094 13.0267C29.9533 13.4451 30.2109 13.9275 30.3675 14.446C30.5241 14.9645 30.5766 15.5089 30.5218 16.0477C30.4671 16.5866 30.3062 17.1093 30.0485 17.5857C29.7908 18.0621 29.4413 18.4828 29.0203 18.8235L28.8219 21.4392C28.7347 22.2892 28.4932 23.1163 28.1094 23.8798C31.6174 26.0713 34.3 29.3638 35.7375 33.2423C37.2352 37.2841 37.9098 41.5845 37.7219 45.8907C37.7225 46.0959 37.6827 46.2992 37.6047 46.489C37.5268 46.6788 37.4122 46.8514 37.2675 46.9969C37.1229 47.1425 36.951 47.2581 36.7616 47.3372C36.5723 47.4163 36.3693 47.4573 36.1641 47.4579ZM19.3906 44.3329H34.5953C34.6375 40.9319 34.0374 37.5535 32.8266 34.3751C31.4647 30.6043 28.6726 27.5214 25.0547 25.7938C25.1953 26.3251 25.2661 26.8782 25.2672 27.4532V36.7423C25.6871 36.9154 26.0342 37.2284 26.2497 37.6283C26.4652 38.0281 26.5358 38.4901 26.4496 38.9361C26.3633 39.382 26.1256 39.7844 25.7766 40.0751C25.4276 40.3658 24.9888 40.5268 24.5347 40.531C24.0805 40.5352 23.6388 40.3822 23.2846 40.0979C22.9303 39.8137 22.6852 39.4157 22.5908 38.9714C22.4965 38.5271 22.5586 38.0639 22.7667 37.6602C22.9749 37.2565 23.3162 36.9372 23.7328 36.7563V27.4532C23.7307 26.947 23.6604 26.4626 23.5219 26.0001C23.2281 26.1064 22.9267 26.1905 22.6203 26.2517L19.4375 33.6579L19.4297 33.6876C19.4147 33.733 19.4068 33.7804 19.4062 33.8282H19.3906V44.3329ZM18.75 28.0157C19.9719 28.0157 21.0375 27.3485 21.6016 26.3595H16.4922C16.2859 26.3595 16.0823 26.349 15.8812 26.3282C16.1655 26.8398 16.5814 27.266 17.0858 27.5627C17.5902 27.8594 18.1648 28.0158 18.75 28.0157ZM21.4922 24.797C22.1875 24.797 22.8437 24.6345 23.4234 24.3391L24.1828 23.8407C24.3626 23.6895 24.5308 23.525 24.6859 23.3485C25.2531 22.6892 25.6312 21.8345 25.7297 20.8563L26.3234 12.3985C26.3278 12.3029 26.3107 12.2075 26.2734 12.1194C26.2361 12.0312 26.1795 11.9526 26.1078 11.8892L25.7734 11.6032C25.4966 11.357 25.2754 11.0546 25.1246 10.7162C24.9737 10.3778 24.8966 10.0112 24.8984 9.64071V8.29696C24.8964 8.27196 24.8927 8.2579 24.8875 8.25478L24.8812 8.25009L24.8656 8.24228C23.9156 8.00634 21.8547 7.59384 18.975 7.59384C16.1047 7.59384 14.0469 8.00321 13.0953 8.24071C13.0852 8.24562 13.0765 8.25318 13.0703 8.26259C13.0617 8.27216 13.0562 8.28417 13.0547 8.29696V9.65634C13.0547 10.3829 12.7484 11.1173 12.1797 11.6188L12.1672 11.6298L11.8828 11.8688C11.8078 11.9379 11.7492 12.0229 11.7111 12.1175C11.673 12.212 11.6564 12.3139 11.6625 12.4157L12.2562 20.8563C12.4875 23.1813 14.2984 24.797 16.4922 24.797H21.4922ZM14.8766 26.136C14.5408 26.0397 14.2145 25.9131 13.9016 25.7579C13.7141 26.2876 13.6094 26.8579 13.6094 27.4532V29.897C14.5751 30.0759 15.4477 30.5874 16.0757 31.3426C16.7036 32.0978 17.0472 33.0491 17.0469 34.0313V39.7032C17.0469 40.2673 16.5937 40.7188 16.0312 40.7188H14.5781C14.3751 40.7188 14.1803 40.6382 14.0367 40.4946C13.8932 40.351 13.8125 40.1563 13.8125 39.9532C13.8125 39.7502 13.8932 39.5554 14.0367 39.4118C14.1803 39.2683 14.3751 39.1876 14.5781 39.1876H15.5156V34.0313C15.5156 33.3227 15.2341 32.6431 14.733 32.142C14.232 31.641 13.5524 31.3595 12.8437 31.3595C12.1351 31.3595 11.4555 31.641 10.9544 32.142C10.4534 32.6431 10.1719 33.3227 10.1719 34.0313V39.1876H11.2187C11.4218 39.1876 11.6165 39.2683 11.7601 39.4118C11.9037 39.5554 11.9844 39.7502 11.9844 39.9532C11.9844 40.1563 11.9037 40.351 11.7601 40.4946C11.6165 40.6382 11.4218 40.7188 11.2187 40.7188H9.65625C9.38689 40.7188 9.12856 40.6118 8.93809 40.4214C8.74763 40.2309 8.64062 39.9726 8.64062 39.7032V34.0313C8.64062 31.9642 10.1281 30.2579 12.0781 29.897V27.4532C12.0781 26.8959 12.1443 26.3579 12.2766 25.8392C8.75688 27.6095 6.05502 30.6684 4.73281 34.3798C3.74909 37.603 3.2932 40.9641 3.38281 44.3329H18.1562V39.4376H18.1406V33.8282C18.1383 33.7697 18.1278 33.7119 18.1094 33.6563L14.8766 26.136Z" stroke="black" stroke-width="2" mask="url(#path-3-inside-1_154_15)"/>
</svg>
