<svg width="39" height="49" viewBox="0 0 39 49" fill="none" xmlns="http://www.w3.org/2000/svg">
<path d="M22.9384 13.7574C22.6656 13.7986 22.4031 13.89 22.1643 14.0267C22.0469 14.0939 21.9352 14.1719 21.8309 14.2604C21.731 14.345 21.6394 14.4377 21.5567 14.5373C21.3825 14.7471 21.2482 14.9875 21.1606 15.2463C21.1286 15.341 21.1028 15.4382 21.0837 15.5373C21.0357 15.7612 21.2276 15.9691 21.4514 15.9691L22.9384 13.7574ZM22.9384 13.7574L22.9385 14.1622M22.9384 13.7574L22.9387 13.7574L22.9385 14.1622M22.9385 14.1622C22.7187 14.1621 22.5018 14.2128 22.3048 14.3104C22.205 14.3599 22.1117 14.4207 22.0266 14.4914C21.9437 14.5602 21.8686 14.6384 21.803 14.7247C21.6698 14.8996 21.5789 15.103 21.5374 15.3188C21.5278 15.3686 21.5209 15.4188 21.5167 15.4691L23.3948 14.237C23.3392 14.2182 23.2825 14.2029 23.2251 14.1912C23.1311 14.1719 23.0351 14.1622 22.9385 14.1622ZM14.0504 15.2707C14.053 15.2552 14.0558 15.2397 14.0587 15.2243C14.1149 14.9328 14.2376 14.6582 14.4174 14.4219C14.5972 14.1857 14.8292 13.9942 15.0952 13.8624C15.1936 13.8136 15.2957 13.7736 15.4003 13.7424L14.062 15.9691C14.0288 15.8045 14.0173 15.6364 14.0277 15.4691M14.0504 15.2707C14.0225 15.3349 13.9984 15.4011 13.9784 15.4691M14.0504 15.2707C14.0394 15.3366 14.0318 15.4028 14.0277 15.4691M14.0504 15.2707C14.0568 15.2559 14.0635 15.2411 14.0703 15.2265C14.1932 14.9641 14.3797 14.7381 14.6094 14.568C14.8095 14.4198 15.0422 14.3141 15.294 14.2637C15.3611 14.2503 15.4294 14.2408 15.4989 14.2355L14.0277 15.4691M13.9784 15.4691H13.8881C13.9071 15.4691 13.9273 15.4795 13.9395 15.4955C13.9485 15.5072 13.9552 15.525 13.9552 15.5441C13.9552 15.5515 13.9543 15.559 13.9521 15.5665L13.9552 15.5557L13.9579 15.5448C13.9642 15.5193 13.971 15.4941 13.9784 15.4691ZM13.9784 15.4691H14.0277M18.5053 18.2976L18.5053 18.2977L18.5077 18.2898L19.3216 15.6249C19.3653 15.4976 19.5409 15.4979 19.5841 15.6258L20.4144 18.2924L20.4144 18.2924L20.4161 18.2976C20.4846 18.5094 20.322 18.747 20.0763 18.747H18.845C18.5993 18.747 18.4368 18.5094 18.5053 18.2976ZM24.8617 15.4691C24.8566 15.3871 24.8462 15.3054 24.8306 15.2243C24.8299 15.2207 24.8292 15.2172 24.8285 15.2137C24.8678 15.2957 24.9008 15.3811 24.9268 15.4691H24.8617ZM19.4367 21.4814C18.9152 21.4814 18.4269 21.3281 18.0155 21.0641C18.4715 21.1847 18.955 21.2501 19.4527 21.2501C19.9229 21.2501 20.3852 21.1958 20.8221 21.0866C20.4183 21.3368 19.9432 21.4814 19.4367 21.4814Z" stroke="black"/>
<path d="M16.2417 15.4686H16.0819C16.1093 15.4309 16.1332 15.3905 16.1532 15.3481C16.1836 15.3737 16.209 15.4049 16.228 15.4401C16.2331 15.4494 16.2376 15.4589 16.2417 15.4686ZM23.2262 15.4686H23.1194C23.1392 15.4413 23.1572 15.4126 23.1732 15.3827C23.1954 15.4085 23.2133 15.4375 23.2262 15.4686Z" stroke="black"/>
<mask id="path-3-inside-1_154_14" fill="white">
<path d="M38.8806 47.2711C38.8806 47.6952 38.7122 48.1019 38.4123 48.4018C38.1124 48.7016 37.7057 48.8701 37.2816 48.8701H2.12901C1.70492 48.8701 1.29821 48.7016 0.998338 48.4018C0.698466 48.1019 0.529999 47.6952 0.529999 47.2711C0.529999 44.4009 0.529999 38.4286 2.1386 34.3191C3.67082 30.1543 6.59596 26.6473 10.4183 24.3925C10.0575 23.7365 9.79252 23.0322 9.63156 22.301C9.00502 21.4676 8.66407 20.4542 8.65936 19.4116V18.7432C7.95034 17.968 7.55714 16.9555 7.55714 15.905C7.55714 14.8544 7.95034 13.8419 8.65936 13.0667V12.9788C8.65512 12.8065 8.59943 12.6394 8.49946 12.4991C7.94922 11.6983 7.62714 10.7629 7.56771 9.79314C7.50827 8.82336 7.71373 7.85567 8.16207 6.99369C8.79497 5.78869 9.86655 4.87281 11.1554 4.43528C11.7151 4.2386 12.1948 3.85963 12.513 3.36074C13.1864 2.28962 14.2192 1.49329 15.4264 1.11443C16.6336 0.73558 17.9362 0.798962 19.1009 1.29322C19.2065 1.33853 19.3202 1.3619 19.4351 1.3619C19.55 1.3619 19.6637 1.33853 19.7693 1.29322C20.9486 0.809701 22.2606 0.75721 23.4747 1.14497C24.6889 1.53273 25.7276 2.33595 26.4084 3.41351C26.7074 3.906 27.1759 4.27218 27.7259 4.44487H27.7435C28.5212 4.71556 29.2256 5.16249 29.8018 5.7507C30.378 6.33892 30.8103 7.05246 31.0648 7.83552C31.3194 8.61858 31.3894 9.44992 31.2692 10.2645C31.1491 11.0791 30.8421 11.8548 30.3723 12.5311C30.2685 12.6694 30.2124 12.8378 30.2124 13.0108V13.0843C30.9115 13.8574 31.2986 14.8626 31.2986 15.905C31.2986 16.9473 30.9115 17.9525 30.2124 18.7256V19.3556C30.21 20.3578 29.9039 21.3356 29.3345 22.1603C29.1806 22.956 28.9016 23.7224 28.5079 24.4309C32.3615 26.6495 35.3131 30.1517 36.8467 34.3255C38.3806 38.4621 39.0722 42.8635 38.8806 47.2711ZM20.0923 45.6721H35.6826C35.7257 42.1916 35.1116 38.7343 33.8725 35.4816C33.1861 33.564 32.1275 31.8009 30.7577 30.2936C29.3878 28.7863 27.7337 27.5644 25.8903 26.6983C26.0321 27.2419 26.1035 27.8069 26.1045 28.3932V37.8993C26.5344 38.0766 26.8896 38.3972 27.1101 38.8065C27.3305 39.2159 27.4026 39.6889 27.3141 40.1454C27.2256 40.6018 26.9819 41.0136 26.6244 41.3109C26.2669 41.6082 25.8176 41.7727 25.3526 41.7765C24.8877 41.7803 24.4357 41.6231 24.0734 41.3317C23.7111 41.0403 23.4608 40.6326 23.3648 40.1776C23.2688 39.7227 23.3332 39.2485 23.5469 38.8356C23.7607 38.4227 24.1106 38.0964 24.5375 37.9121V28.3932C24.5375 27.6289 24.3712 26.9045 24.0738 26.2521C23.9572 26.3112 23.8388 26.3666 23.7188 26.4184L20.1402 34.7413L20.1322 34.7733C20.117 34.8197 20.1089 34.8683 20.1083 34.9172H20.0923V45.6721ZM22.5803 26.7958C22.0559 26.9216 21.5143 26.985 20.9557 26.9861H17.9816C17.3974 26.985 16.8324 26.9157 16.2866 26.7782C16.524 27.4207 16.9521 27.9752 17.5136 28.3674C18.0751 28.7596 18.743 28.9707 19.4279 28.9724C20.1128 28.9742 20.7818 28.7664 21.3453 28.3771C21.9088 27.9878 22.3397 27.4354 22.5803 26.7942M15.1993 26.4104C15.0234 26.3337 14.8507 26.25 14.6812 26.1594C14.3464 26.8558 14.1737 27.6189 14.1759 28.3916V30.8925C15.1643 31.0756 16.0573 31.599 16.6999 32.3719C17.3425 33.1448 17.6941 34.1183 17.6938 35.1234V40.9278C17.6938 41.5035 17.23 41.9672 16.6544 41.9672H15.1673C14.9595 41.9672 14.7602 41.8847 14.6133 41.7377C14.4664 41.5908 14.3838 41.3915 14.3838 41.1837C14.3838 40.9759 14.4664 40.7766 14.6133 40.6297C14.7602 40.4827 14.9595 40.4002 15.1673 40.4002H16.1267V35.1234C16.1267 34.3983 15.8386 33.7028 15.3259 33.19C14.8131 32.6772 14.1176 32.3891 13.3924 32.3891C12.6672 32.3891 11.9718 32.6772 11.459 33.19C10.9462 33.7028 10.6581 34.3983 10.6581 35.1234V40.4002H11.7295C11.9373 40.4002 12.1365 40.4827 12.2835 40.6297C12.4304 40.7766 12.513 40.9759 12.513 41.1837C12.513 41.3915 12.4304 41.5908 12.2835 41.7377C12.1365 41.8847 11.9373 41.9672 11.7295 41.9672H10.1304C9.99396 41.9672 9.8588 41.9403 9.7327 41.8881C9.6066 41.8358 9.49202 41.7593 9.39551 41.6628C9.299 41.5663 9.22244 41.4517 9.17021 41.3256C9.11797 41.1995 9.09109 41.0643 9.09109 40.9278V35.1234C9.09071 34.1183 9.44236 33.1448 10.085 32.3719C10.7276 31.599 11.6206 31.0756 12.6089 30.8925V28.3932C12.61 27.8346 12.675 27.2947 12.804 26.7734C9.21068 28.5767 6.45492 31.7009 5.11436 35.4912C4.1087 38.7883 3.6427 42.2263 3.73441 45.6721H18.8291V40.6576H18.8131V34.9172C18.8107 34.8573 18.7999 34.7981 18.7811 34.7413L15.1993 26.4104ZM16.6864 7.50857C15.4862 7.50857 14.3352 7.98533 13.4866 8.83397C12.6379 9.68261 12.1612 10.8336 12.1612 12.0338V13.329C12.1612 13.3535 12.1601 13.3769 12.158 13.3993L12.6377 20.7324C12.8155 22.0229 13.4548 23.2053 14.4373 24.0608C15.4198 24.9163 16.6789 25.3869 17.9816 25.3855H20.9557C22.2585 25.3869 23.5176 24.9163 24.5 24.0608C25.4825 23.2053 26.1218 22.0229 26.2996 20.7324L26.7793 13.4169V13.3082L26.8721 11.9042C26.8602 11.5277 26.7073 11.1694 26.4437 10.9002C26.1802 10.631 25.8252 10.4706 25.4489 10.4507H23.2263C22.3197 10.4526 21.4322 10.1905 20.6721 9.69646C19.912 9.2024 19.3121 8.49773 18.9458 7.66847C18.9291 7.6213 18.8981 7.58052 18.8571 7.55185C18.8161 7.52318 18.7672 7.50804 18.7171 7.50857H16.6864Z"/>
</mask>
<path d="M38.8806 47.2711L37.8816 47.2277L37.8806 47.2494V47.2711H38.8806ZM2.1386 34.3191L3.0698 34.6837L3.07355 34.6741L3.07711 34.6644L2.1386 34.3191ZM10.4183 24.3925L10.9263 25.2538L11.7621 24.7608L11.2945 23.9106L10.4183 24.3925ZM9.63156 22.301L10.6082 22.086L10.5615 21.8738L10.4309 21.7001L9.63156 22.301ZM8.65936 19.4116L7.65935 19.4116L7.65937 19.4161L8.65936 19.4116ZM8.65936 18.7432H9.65936V18.3549L9.39726 18.0683L8.65936 18.7432ZM8.65936 13.0667L9.39726 13.7416L9.65936 13.4551V13.0667H8.65936ZM8.65936 12.9788H9.65936V12.9665L9.65906 12.9542L8.65936 12.9788ZM8.49946 12.4991L7.67527 13.0654L7.68005 13.0723L7.68494 13.0792L8.49946 12.4991ZM8.16207 6.99369L7.27675 6.52869L7.2749 6.53225L8.16207 6.99369ZM11.1554 4.43528L11.4769 5.38225L11.487 5.37871L11.1554 4.43528ZM12.513 3.36074L13.3561 3.8985L13.3596 3.89299L12.513 3.36074ZM19.1009 1.29322L19.4952 0.374252L19.4915 0.372685L19.1009 1.29322ZM19.7693 1.29322L19.3899 0.367974L19.3824 0.371056L19.3749 0.374259L19.7693 1.29322ZM26.4084 3.41351L27.2631 2.89453L27.2585 2.88693L27.2538 2.87941L26.4084 3.41351ZM27.7259 4.44487L27.4264 5.39895L27.5726 5.44487H27.7259V4.44487ZM27.7435 4.44487L28.0723 3.50045L27.9126 3.44487H27.7435V4.44487ZM30.3723 12.5311L31.1723 13.1311L31.1832 13.1165L31.1936 13.1016L30.3723 12.5311ZM30.2124 13.0843H29.2124V13.4694L29.4707 13.755L30.2124 13.0843ZM30.2124 18.7256L29.4707 18.0549L29.2124 18.3405V18.7256H30.2124ZM30.2124 19.3556L31.2124 19.358V19.3556H30.2124ZM29.3345 22.1603L28.5116 21.5921L28.3925 21.7646L28.3527 21.9703L29.3345 22.1603ZM28.5079 24.4309L27.6338 23.9451L27.1553 24.8061L28.0089 25.2975L28.5079 24.4309ZM36.8467 34.3255L35.908 34.6704L35.9091 34.6732L36.8467 34.3255ZM20.0923 45.6721H19.0923V46.6721H20.0923V45.6721ZM35.6826 45.6721V46.6721H36.6703L36.6825 45.6845L35.6826 45.6721ZM33.8725 35.4816L32.931 35.8186L32.9344 35.8282L32.938 35.8376L33.8725 35.4816ZM25.8903 26.6983L26.3155 25.7932L24.3841 24.8857L24.9226 26.9506L25.8903 26.6983ZM26.1045 28.3932L27.1045 28.3932L27.1045 28.3914L26.1045 28.3932ZM26.1045 37.8993H25.1045V38.5685L25.7232 38.8237L26.1045 37.8993ZM24.5375 37.9121L24.9339 38.8302L25.5375 38.5696V37.9121H24.5375ZM24.0738 26.2521L24.9837 25.8373L24.5515 24.8893L23.622 25.36L24.0738 26.2521ZM23.7188 26.4184L23.3225 25.5003L22.9573 25.658L22.8001 26.0234L23.7188 26.4184ZM20.1402 34.7413L19.2216 34.3463L19.1897 34.4204L19.1701 34.4987L20.1402 34.7413ZM20.1322 34.7733L21.0822 35.0857L21.0935 35.0512L21.1024 35.0158L20.1322 34.7733ZM20.1083 34.9172V35.9172H21.0958L21.1082 34.9297L20.1083 34.9172ZM20.0923 34.9172V33.9172H19.0923V34.9172H20.0923ZM20.9557 26.9861L20.9557 27.9861L20.9576 27.9861L20.9557 26.9861ZM17.9816 26.9861L17.9798 27.9861H17.9816V26.9861ZM16.2866 26.7782L16.5309 25.8085L14.691 25.345L15.3486 27.1248L16.2866 26.7782ZM15.1993 26.4104L16.118 26.0155L15.9618 25.6521L15.5992 25.4939L15.1993 26.4104ZM14.6812 26.1594L15.1527 25.2775L14.2322 24.7854L13.78 25.7261L14.6812 26.1594ZM14.1759 28.3916L15.1759 28.3916L15.1759 28.3887L14.1759 28.3916ZM14.1759 30.8925H13.1759V31.7242L13.9938 31.8757L14.1759 30.8925ZM17.6938 35.1234L16.6938 35.1231V35.1234H17.6938ZM16.1267 40.4002V41.4002H17.1267V40.4002H16.1267ZM16.1267 35.1234H15.1267H16.1267ZM13.3924 32.3891L13.3924 31.3891L13.3924 32.3891ZM10.6581 40.4002H9.65812V41.4002H10.6581V40.4002ZM11.7295 40.4002V39.4002V40.4002ZM10.1304 41.9672V42.9672V41.9672ZM9.09109 40.9278H10.0911H9.09109ZM9.09109 35.1234L10.0911 35.1234L10.0911 35.1231L9.09109 35.1234ZM12.6089 30.8925L12.7911 31.8757L13.6089 31.7242V30.8925H12.6089ZM12.6089 28.3932L11.6089 28.3913V28.3932H12.6089ZM12.804 26.7734L13.7747 27.0136L14.2963 24.9057L12.3555 25.8797L12.804 26.7734ZM5.11436 35.4912L4.17159 35.1578L4.16426 35.1785L4.15786 35.1995L5.11436 35.4912ZM3.73441 45.6721L2.73477 45.6987L2.76067 46.6721H3.73441V45.6721ZM18.8291 45.6721V46.6721H19.8291V45.6721H18.8291ZM18.8291 40.6576H19.8291V39.6576H18.8291V40.6576ZM18.8131 40.6576H17.8131V41.6576H18.8131V40.6576ZM18.8131 34.9172H19.8131V34.8973L19.8123 34.8775L18.8131 34.9172ZM18.7811 34.7413L19.7303 34.4267L19.7168 34.3858L19.6998 34.3463L18.7811 34.7413ZM12.158 13.3993L11.1625 13.3045L11.1549 13.3845L11.1601 13.4646L12.158 13.3993ZM12.6377 20.7324L11.6398 20.7976L11.6422 20.8334L11.6471 20.8689L12.6377 20.7324ZM17.9816 25.3855L17.9816 24.3855L17.9805 24.3855L17.9816 25.3855ZM20.9557 25.3855L20.9568 24.3855H20.9557V25.3855ZM26.2996 20.7324L27.2903 20.8689L27.2951 20.8335L27.2975 20.7978L26.2996 20.7324ZM26.7793 13.4169L27.7772 13.4823L27.7793 13.4497V13.4169H26.7793ZM26.7793 13.3082L25.7815 13.2423L25.7793 13.2752V13.3082H26.7793ZM26.8721 11.9042L27.8699 11.9702L27.8731 11.9214L27.8716 11.8727L26.8721 11.9042ZM25.4489 10.4507L25.5016 9.45213L25.4753 9.45074H25.4489V10.4507ZM23.2263 10.4507L23.2263 9.45074L23.2243 9.45075L23.2263 10.4507ZM18.9458 7.66847L18.003 8.00175L18.0157 8.0377L18.0311 8.07258L18.9458 7.66847ZM18.7171 7.50857L18.7171 8.50863L18.7276 8.50851L18.7171 7.50857ZM37.8806 47.2711C37.8806 47.43 37.8175 47.5823 37.7052 47.6947L39.1194 49.1089C39.6068 48.6215 39.8806 47.9604 39.8806 47.2711H37.8806ZM37.7052 47.6947C37.5928 47.807 37.4405 47.8701 37.2816 47.8701V49.8701C37.9709 49.8701 38.632 49.5963 39.1194 49.1089L37.7052 47.6947ZM37.2816 47.8701H2.12901V49.8701H37.2816V47.8701ZM2.12901 47.8701C1.97014 47.8701 1.81778 47.807 1.70544 47.6947L0.291231 49.1089C0.778637 49.5963 1.4397 49.8701 2.12901 49.8701V47.8701ZM1.70544 47.6947C1.59311 47.5823 1.53 47.43 1.53 47.2711H-0.470001C-0.470001 47.9604 -0.196176 48.6215 0.291231 49.1089L1.70544 47.6947ZM1.53 47.2711C1.53 44.3506 1.54335 38.5832 3.0698 34.6837L1.2074 33.9546C-0.483353 38.274 -0.470001 44.4512 -0.470001 47.2711H1.53ZM3.07711 34.6644C4.52967 30.716 7.30274 27.3913 10.9263 25.2538L9.91019 23.5312C5.88917 25.9032 2.81197 29.5925 1.2001 33.9739L3.07711 34.6644ZM11.2945 23.9106C10.9797 23.3383 10.7486 22.7239 10.6082 22.086L8.65494 22.516C8.83645 23.3405 9.13519 24.1347 9.54206 24.8744L11.2945 23.9106ZM10.4309 21.7001C9.93367 21.0387 9.66309 20.2345 9.65935 19.4071L7.65937 19.4161C7.66506 20.674 8.07638 21.8964 8.83223 22.9019L10.4309 21.7001ZM9.65936 19.4116V18.7432H7.65936V19.4116H9.65936ZM9.39726 18.0683C8.85684 17.4774 8.55714 16.7057 8.55714 15.905H6.55714C6.55714 17.2053 7.04384 18.4586 7.92145 19.4181L9.39726 18.0683ZM8.55714 15.905C8.55714 15.1042 8.85684 14.3325 9.39726 13.7416L7.92145 12.3918C7.04384 13.3514 6.55714 14.6046 6.55714 15.905H8.55714ZM9.65936 13.0667V12.9788H7.65936V13.0667H9.65936ZM9.65906 12.9542C9.64991 12.5824 9.52973 12.2218 9.31397 11.9189L7.68494 13.0792C7.66914 13.057 7.66033 13.0306 7.65966 13.0034L9.65906 12.9542ZM9.32364 11.9328C8.87612 11.2815 8.61417 10.5207 8.56583 9.73198L6.56958 9.85431C6.64011 11.0051 7.02231 12.1151 7.67527 13.0654L9.32364 11.9328ZM8.56583 9.73198C8.5175 8.94323 8.68459 8.15619 9.04924 7.45513L7.2749 6.53225C6.74286 7.55514 6.49905 8.70349 6.56958 9.85431L8.56583 9.73198ZM9.04738 7.45869C9.56107 6.48067 10.4308 5.73732 11.4769 5.3822L10.834 3.48835C9.30231 4.00831 8.02888 5.0967 7.27675 6.52869L9.04738 7.45869ZM11.487 5.37871C12.2561 5.1084 12.9166 4.58744 13.3561 3.89849L11.6699 2.82299C11.4729 3.13182 11.174 3.36879 10.8239 3.49184L11.487 5.37871ZM13.3596 3.89299C13.9065 3.02303 14.7454 2.37625 15.7258 2.06855L15.127 0.160317C13.6931 0.610321 12.4663 1.5562 11.6664 2.82849L13.3596 3.89299ZM15.7258 2.06855C16.7063 1.76085 17.7643 1.81233 18.7102 2.21376L19.4915 0.372685C18.1081 -0.214401 16.5608 -0.289687 15.127 0.160317L15.7258 2.06855ZM18.7065 2.21219C18.9367 2.31096 19.1846 2.3619 19.4351 2.3619L19.4351 0.361899C19.4558 0.361899 19.4762 0.366105 19.4952 0.374259L18.7065 2.21219ZM19.4351 2.3619C19.6856 2.3619 19.9334 2.31096 20.1636 2.21219L19.3749 0.374259C19.3939 0.366104 19.4144 0.361899 19.4351 0.361899L19.4351 2.3619ZM20.1486 2.21847C21.1104 1.82415 22.1803 1.78134 23.1705 2.09757L23.779 0.192372C22.3408 -0.266925 20.7868 -0.20475 19.3899 0.367974L20.1486 2.21847ZM23.1705 2.09757C24.1607 2.4138 25.0078 3.06884 25.5629 3.94761L27.2538 2.87941C26.4474 1.60306 25.2171 0.651669 23.779 0.192372L23.1705 2.09757ZM25.5536 3.93249C25.9792 4.63353 26.6455 5.1538 27.4264 5.39895L28.0255 3.49079C27.7062 3.39056 27.4355 3.17848 27.2631 2.89453L25.5536 3.93249ZM27.7259 5.44487H27.7435V3.44487H27.7259V5.44487ZM27.4148 5.38929C28.0467 5.60926 28.6192 5.97246 29.0874 6.45047L30.5162 5.05094C29.832 4.35252 28.9956 3.82185 28.0723 3.50045L27.4148 5.38929ZM29.0874 6.45047C29.5557 6.92848 29.907 7.50833 30.1138 8.14469L32.0158 7.52635C31.7136 6.59659 31.2003 5.74936 30.5162 5.05094L29.0874 6.45047ZM30.1138 8.14469C30.3207 8.78104 30.3776 9.45662 30.2799 10.1186L32.2585 10.4104C32.4012 9.44321 32.3181 8.45612 32.0158 7.52635L30.1138 8.14469ZM30.2799 10.1186C30.1823 10.7806 29.9328 11.411 29.551 11.9605L31.1936 13.1016C31.7514 12.2987 32.1159 11.3776 32.2585 10.4104L30.2799 10.1186ZM29.5723 11.9311C29.3387 12.2425 29.2124 12.6214 29.2124 13.0108H31.2124C31.2124 13.0542 31.1983 13.0964 31.1723 13.1311L29.5723 11.9311ZM29.2124 13.0108V13.0843H31.2124V13.0108H29.2124ZM29.4707 13.755C30.0036 14.3443 30.2986 15.1105 30.2986 15.905H32.2986C32.2986 14.6148 31.8195 13.3705 30.9541 12.4136L29.4707 13.755ZM30.2986 15.905C30.2986 16.6994 30.0036 17.4656 29.4707 18.0549L30.9541 19.3963C31.8195 18.4394 32.2986 17.1952 32.2986 15.905H30.2986ZM29.2124 18.7256V19.3556H31.2124V18.7256H29.2124ZM29.2124 19.3532C29.2105 20.1532 28.9662 20.9338 28.5116 21.5921L30.1574 22.7285C30.8417 21.7374 31.2095 20.5623 31.2124 19.358L29.2124 19.3532ZM28.3527 21.9703C28.2189 22.6624 27.9762 23.3289 27.6338 23.9451L29.3819 24.9166C29.827 24.1159 30.1423 23.2497 30.3163 22.3502L28.3527 21.9703ZM28.0089 25.2975C31.6594 27.3991 34.4553 30.7167 35.908 34.6704L37.7853 33.9806C36.1708 29.5867 33.0637 25.8998 29.0068 23.5642L28.0089 25.2975ZM35.9091 34.6732C37.3967 38.6848 38.0673 42.9532 37.8816 47.2277L39.8797 47.3145C40.077 42.7737 39.3646 38.2393 37.7843 33.9778L35.9091 34.6732ZM20.0923 46.6721H35.6826V44.6721H20.0923V46.6721ZM36.6825 45.6845C36.7272 42.0782 36.0909 38.4959 34.807 35.1256L32.938 35.8376C34.1323 38.9727 34.7243 42.3051 34.6827 45.6597L36.6825 45.6845ZM34.814 35.1446C34.0832 33.103 32.9562 31.2258 31.4977 29.621L30.0176 30.9661C31.2989 32.376 32.289 34.025 32.931 35.8186L34.814 35.1446ZM31.4977 29.621C30.0393 28.0162 28.2782 26.7154 26.3155 25.7932L25.465 27.6033C27.1892 28.4135 28.7364 29.5563 30.0176 30.9661L31.4977 29.621ZM24.9226 26.9506C25.0422 27.409 25.1036 27.8896 25.1045 28.395L27.1045 28.3914C27.1033 27.7242 27.0219 27.0749 26.8579 26.4459L24.9226 26.9506ZM25.1045 28.3932V37.8993H27.1045V28.3932H25.1045ZM25.7232 38.8237C25.9397 38.9131 26.1186 39.0745 26.2296 39.2807L27.9905 38.3324C27.6606 37.7198 27.1291 37.2402 26.4859 36.9749L25.7232 38.8237ZM26.2296 39.2807C26.3407 39.4869 26.377 39.7251 26.3324 39.955L28.2958 40.3358C28.4282 39.6528 28.3204 38.945 27.9905 38.3324L26.2296 39.2807ZM26.3324 39.955C26.2878 40.1849 26.1651 40.3923 25.985 40.542L27.2638 42.0798C27.7987 41.635 28.1633 41.0188 28.2958 40.3358L26.3324 39.955ZM25.985 40.542C25.8049 40.6918 25.5786 40.7746 25.3445 40.7765L25.3608 42.7765C26.0565 42.7708 26.7288 42.5246 27.2638 42.0798L25.985 40.542ZM25.3445 40.7765C25.1103 40.7784 24.8827 40.6993 24.7002 40.5525L23.4467 42.111C23.9888 42.547 24.6651 42.7821 25.3608 42.7765L25.3445 40.7765ZM24.7002 40.5525C24.5177 40.4057 24.3916 40.2004 24.3433 39.9712L22.3863 40.384C22.5299 41.0648 22.9046 41.6749 23.4467 42.111L24.7002 40.5525ZM24.3433 39.9712C24.2949 39.7421 24.3274 39.5033 24.435 39.2953L22.6589 38.3759C22.339 38.9938 22.2427 39.7033 22.3863 40.384L24.3433 39.9712ZM24.435 39.2953C24.5427 39.0874 24.7189 38.923 24.9339 38.8302L24.1411 36.994C23.5024 37.2698 22.9787 37.7581 22.6589 38.3759L24.435 39.2953ZM25.5375 37.9121V28.3932H23.5375V37.9121H25.5375ZM25.5375 28.3932C25.5375 27.4823 25.339 26.6168 24.9837 25.8373L23.1639 26.667C23.4034 27.1923 23.5375 27.7755 23.5375 28.3932H25.5375ZM23.622 25.36C23.5237 25.4098 23.4238 25.4566 23.3225 25.5003L24.1151 27.3366C24.2539 27.2767 24.3907 27.2126 24.5256 27.1443L23.622 25.36ZM22.8001 26.0234L19.2216 34.3463L21.0589 35.1363L24.6375 26.8134L22.8001 26.0234ZM19.1701 34.4987L19.1621 34.5307L21.1024 35.0158L21.1104 34.9839L19.1701 34.4987ZM19.1823 34.4608C19.1352 34.6041 19.1102 34.7538 19.1083 34.9047L21.1082 34.9297C21.1075 34.9827 21.0987 35.0353 21.0822 35.0857L19.1823 34.4608ZM20.1083 33.9172H20.0923V35.9172H20.1083V33.9172ZM19.0923 34.9172V45.6721H21.0923V34.9172H19.0923ZM22.3471 25.8234C21.9011 25.9304 21.4373 25.9852 20.9538 25.9861L20.9576 27.9861C21.5914 27.9849 22.2106 27.9128 22.8135 27.7682L22.3471 25.8234ZM20.9557 25.9861H17.9816V27.9861H20.9557V25.9861ZM17.9834 25.9861C17.4779 25.9852 16.9945 25.9253 16.5309 25.8085L16.0423 27.7479C16.6703 27.9062 17.3169 27.9849 17.9798 27.9861L17.9834 25.9861ZM15.3486 27.1248C15.6566 27.9585 16.2123 28.6782 16.9409 29.1872L18.0862 27.5476C17.692 27.2722 17.3913 26.8828 17.2247 26.4317L15.3486 27.1248ZM16.9409 29.1872C17.6696 29.6962 18.5365 29.9702 19.4254 29.9724L19.4305 27.9724C18.9495 27.9712 18.4805 27.8229 18.0862 27.5476L16.9409 29.1872ZM19.4254 29.9724C20.3142 29.9747 21.1825 29.7051 21.9138 29.1998L20.7768 27.5544C20.3812 27.8278 19.9114 27.9736 19.4305 27.9724L19.4254 29.9724ZM21.9138 29.1998C22.645 28.6945 23.2043 27.9777 23.5166 27.1455L21.6441 26.4429C21.4751 26.8932 21.1725 27.281 20.7768 27.5544L21.9138 29.1998ZM15.5992 25.4939C15.4477 25.4278 15.2988 25.3556 15.1527 25.2775L14.2098 27.0413C14.4026 27.1444 14.5991 27.2396 14.7994 27.327L15.5992 25.4939ZM13.78 25.7261C13.3797 26.5586 13.1732 27.4709 13.1759 28.3946L15.1759 28.3887C15.1741 27.767 15.3131 27.153 15.5825 26.5927L13.78 25.7261ZM13.1759 28.3916V30.8925H15.1759V28.3916H13.1759ZM13.9938 31.8757C14.7523 32.0163 15.4377 32.418 15.9309 33.0112L17.4688 31.7326C16.6768 30.78 15.5762 30.1349 14.3581 29.9092L13.9938 31.8757ZM15.9309 33.0112C16.4241 33.6044 16.694 34.3516 16.6938 35.1231L18.6938 35.1238C18.6942 33.885 18.2608 32.6851 17.4688 31.7326L15.9309 33.0112ZM16.6938 35.1234V40.9278H18.6938V35.1234H16.6938ZM16.6938 40.9278C16.6938 40.9364 16.6922 40.9413 16.6909 40.9445C16.6893 40.9484 16.6866 40.9525 16.6828 40.9563C16.6791 40.9601 16.675 40.9627 16.6711 40.9643C16.6679 40.9657 16.6629 40.9672 16.6544 40.9672V42.9672C17.7823 42.9672 18.6938 42.0558 18.6938 40.9278H16.6938ZM16.6544 40.9672H15.1673V42.9672H16.6544V40.9672ZM15.1673 40.9672C15.2247 40.9672 15.2798 40.99 15.3204 41.0306L13.9062 42.4448C14.2407 42.7793 14.6943 42.9672 15.1673 42.9672V40.9672ZM15.3204 41.0306C15.361 41.0712 15.3838 41.1263 15.3838 41.1837H13.3838C13.3838 41.6567 13.5717 42.1103 13.9062 42.4448L15.3204 41.0306ZM15.3838 41.1837C15.3838 41.2411 15.361 41.2962 15.3204 41.3368L13.9062 39.9226C13.5717 40.257 13.3838 40.7107 13.3838 41.1837H15.3838ZM15.3204 41.3368C15.2798 41.3774 15.2247 41.4002 15.1673 41.4002V39.4002C14.6943 39.4002 14.2407 39.5881 13.9062 39.9226L15.3204 41.3368ZM15.1673 41.4002H16.1267V39.4002H15.1673V41.4002ZM17.1267 40.4002V35.1234H15.1267V40.4002H17.1267ZM17.1267 35.1234C17.1267 34.133 16.7333 33.1832 16.033 32.4829L14.6188 33.8971C14.944 34.2223 15.1267 34.6635 15.1267 35.1234L17.1267 35.1234ZM16.033 32.4829C15.3327 31.7826 14.3828 31.3891 13.3924 31.3891L13.3924 33.3891C13.8524 33.3891 14.2935 33.5719 14.6188 33.8971L16.033 32.4829ZM13.3924 31.3891C12.402 31.3891 11.4522 31.7826 10.7519 32.4829L12.1661 33.8971C12.4913 33.5719 12.9325 33.3891 13.3924 33.3891L13.3924 31.3891ZM10.7519 32.4829C10.0516 33.1832 9.65812 34.133 9.65812 35.1234H11.6581C11.6581 34.6635 11.8408 34.2223 12.1661 33.8971L10.7519 32.4829ZM9.65812 35.1234V40.4002H11.6581V35.1234H9.65812ZM10.6581 41.4002H11.7295V39.4002H10.6581V41.4002ZM11.7295 41.4002C11.672 41.4002 11.617 41.3774 11.5764 41.3368L12.9906 39.9226C12.6561 39.5881 12.2025 39.4002 11.7295 39.4002L11.7295 41.4002ZM11.5764 41.3368C11.5358 41.2962 11.513 41.2411 11.513 41.1837H13.513C13.513 40.7107 13.3251 40.257 12.9906 39.9226L11.5764 41.3368ZM11.513 41.1837C11.513 41.1263 11.5358 41.0712 11.5764 41.0306L12.9906 42.4448C13.3251 42.1103 13.513 41.6567 13.513 41.1837H11.513ZM11.5764 41.0306C11.617 40.99 11.672 40.9672 11.7295 40.9672V42.9672C12.2025 42.9672 12.6561 42.7793 12.9906 42.4448L11.5764 41.0306ZM11.7295 40.9672H10.1304V42.9672H11.7295V40.9672ZM10.1304 40.9672C10.1253 40.9672 10.1202 40.9662 10.1154 40.9642L9.35002 42.812C9.59744 42.9144 9.86263 42.9672 10.1304 42.9672L10.1304 40.9672ZM10.1154 40.9642C10.1106 40.9622 10.1063 40.9593 10.1026 40.9557L8.6884 42.3699C8.87778 42.5593 9.10259 42.7095 9.35002 42.812L10.1154 40.9642ZM10.1026 40.9557C10.099 40.952 10.0961 40.9477 10.0941 40.9429L8.24633 41.7083C8.34882 41.9557 8.49904 42.1805 8.6884 42.3699L10.1026 40.9557ZM10.0941 40.9429C10.0921 40.9381 10.0911 40.933 10.0911 40.9278L8.09109 40.9278C8.09109 41.1957 8.14384 41.4608 8.24633 41.7083L10.0941 40.9429ZM10.0911 40.9278V35.1234H8.09109V40.9278H10.0911ZM10.0911 35.1231C10.0908 34.3516 10.3607 33.6044 10.8539 33.0112L9.31604 31.7326C8.52403 32.6851 8.09063 33.885 8.09109 35.1238L10.0911 35.1231ZM10.8539 33.0112C11.3471 32.418 12.0325 32.0163 12.7911 31.8757L12.4268 29.9092C11.2087 30.1349 10.1081 30.78 9.31604 31.7326L10.8539 33.0112ZM13.6089 30.8925V28.3932H11.6089V30.8925H13.6089ZM13.6089 28.3951C13.6098 27.9136 13.6658 27.4539 13.7747 27.0136L11.8333 26.5332C11.6842 27.1355 11.6101 27.7556 11.6089 28.3913L13.6089 28.3951ZM12.3555 25.8797C8.5312 27.7988 5.59831 31.1238 4.17159 35.1578L6.05713 35.8247C7.31153 32.278 9.89017 29.3545 13.2525 27.6672L12.3555 25.8797ZM4.15786 35.1995C3.12076 38.5996 2.64019 42.1451 2.73477 45.6987L4.73406 45.6455C4.64522 42.3074 5.09664 38.9769 6.07085 35.783L4.15786 35.1995ZM3.73441 46.6721H18.8291V44.6721H3.73441V46.6721ZM19.8291 45.6721V40.6576H17.8291V45.6721H19.8291ZM18.8291 39.6576H18.8131V41.6576H18.8291V39.6576ZM19.8131 40.6576V34.9172H17.8131V40.6576H19.8131ZM19.8123 34.8775C19.8062 34.7242 19.7786 34.5724 19.7303 34.4267L17.8319 35.0559C17.8212 35.0239 17.8152 34.9905 17.8138 34.9568L19.8123 34.8775ZM19.6998 34.3463L16.118 26.0155L14.2806 26.8054L17.8624 35.1363L19.6998 34.3463ZM16.6864 6.50857C15.221 6.50857 13.8157 7.09069 12.7795 8.12686L14.1937 9.54107C14.8548 8.87997 15.7514 8.50857 16.6864 8.50857V6.50857ZM12.7795 8.12686C11.7433 9.16304 11.1612 10.5684 11.1612 12.0338H13.1612C13.1612 11.0988 13.5326 10.2022 14.1937 9.54107L12.7795 8.12686ZM11.1612 12.0338V13.329H13.1612V12.0338H11.1612ZM11.1612 13.329C11.1612 13.3246 11.1614 13.3163 11.1625 13.3045L13.1535 13.4941C13.1589 13.4375 13.1612 13.3823 13.1612 13.329H11.1612ZM11.1601 13.4646L11.6398 20.7976L13.6356 20.6671L13.1559 13.334L11.1601 13.4646ZM11.6471 20.8689C11.8579 22.3989 12.6158 23.8007 13.7806 24.8149L15.094 23.3066C14.2938 22.6099 13.7732 21.6469 13.6283 20.5959L11.6471 20.8689ZM13.7806 24.8149C14.9454 25.8292 16.4382 26.3871 17.9826 26.3855L17.9805 24.3855C16.9196 24.3866 15.8941 24.0033 15.094 23.3066L13.7806 24.8149ZM17.9816 26.3855H20.9557V24.3855H17.9816V26.3855ZM20.9547 26.3855C22.4992 26.3871 23.9919 25.8292 25.1567 24.8149L23.8433 23.3066C23.0432 24.0033 22.0177 24.3866 20.9568 24.3855L20.9547 26.3855ZM25.1567 24.8149C26.3215 23.8007 27.0794 22.3989 27.2903 20.8689L25.309 20.5959C25.1642 21.6469 24.6435 22.6099 23.8433 23.3066L25.1567 24.8149ZM27.2975 20.7978L27.7772 13.4823L25.7815 13.3515L25.3018 20.6669L27.2975 20.7978ZM27.7793 13.4169V13.3082H25.7793V13.4169H27.7793ZM27.7771 13.3741L27.8699 11.9702L25.8742 11.8383L25.7815 13.2423L27.7771 13.3741ZM27.8716 11.8727C27.8517 11.2456 27.5972 10.6489 27.1583 10.2006L25.7292 11.5998C25.8174 11.6899 25.8686 11.8098 25.8726 11.9358L27.8716 11.8727ZM27.1583 10.2006C26.7194 9.75231 26.1281 9.48519 25.5016 9.45213L25.3963 11.4494C25.5222 11.456 25.641 11.5097 25.7292 11.5998L27.1583 10.2006ZM25.4489 9.45074H23.2263V11.4507H25.4489V9.45074ZM23.2243 9.45075C22.5118 9.45222 21.8144 9.24626 21.2171 8.85801L20.1271 10.5349C21.0501 11.1348 22.1276 11.453 23.2284 11.4507L23.2243 9.45075ZM21.2171 8.85801C20.6198 8.46976 20.1484 7.91602 19.8605 7.26436L18.0311 8.07258C18.4759 9.07944 19.2042 9.93503 20.1271 10.5349L21.2171 8.85801ZM19.8886 7.33519C19.8024 7.09135 19.6421 6.88056 19.4302 6.73235L18.284 8.37135C18.1541 8.28048 18.0558 8.15125 18.003 8.00175L19.8886 7.33519ZM19.4302 6.73235C19.2182 6.58413 18.9652 6.50591 18.7066 6.50863L18.7276 8.50851C18.5691 8.51018 18.414 8.46222 18.284 8.37135L19.4302 6.73235ZM18.7171 6.50857H16.6864V8.50857H18.7171V6.50857Z" fill="black" mask="url(#path-3-inside-1_154_14)"/>
</svg>
