<svg width="43" height="39" viewBox="0 0 43 39" fill="none" xmlns="http://www.w3.org/2000/svg">
<path d="M18.5533 6.76524L17.8473 6.11355L17.1679 6.79293L3.18173 20.7791C2.12887 19.1815 1.50821 16.9894 1.16346 14.0807C0.976854 10.6051 1.93256 7.75235 4.02824 5.2611C6.3398 2.96241 8.99573 1.83337 12.25 1.83337C15.5254 1.83337 18.1699 2.97585 20.2628 5.2591L20.2775 5.27512L20.2929 5.29048L22.711 7.70863C22.0091 8.00239 21.3453 8.34787 20.6956 8.74275L18.5533 6.76524ZM24.0522 3.30471C25.7462 2.36005 27.6803 1.83337 29.75 1.83337C31.0187 1.83337 32.5365 2.19633 34.3231 2.98795C35.874 3.76593 37.2151 4.72493 38.1638 5.66172C39.9241 7.97061 40.8527 10.5637 40.699 13.4722C38.1492 9.24909 33.5073 6.50004 28.2917 6.50004H27.2475L24.0522 3.30471ZM6.91544 22.9988L6.92124 22.993L6.92694 22.9871C10.0509 19.759 12.5964 17.1617 14.567 15.217C14.8154 14.9719 15.0539 14.7379 15.2827 14.5148C14.5528 15.8988 14.0518 17.4335 13.8046 19.1146L8.41789 24.5013C8.32331 24.5958 8.18512 24.6844 8.02444 24.7486C7.85943 24.8147 7.72542 24.8334 7.66667 24.8334C7.47085 24.8334 7.35238 24.8019 7.26551 24.7633C7.1743 24.7228 7.06474 24.6506 6.91544 24.5013C6.76614 24.352 6.69393 24.2424 6.65339 24.1512C6.61479 24.0643 6.58333 23.9459 6.58333 23.75C6.58333 23.5542 6.61479 23.4358 6.65339 23.3489C6.69393 23.2577 6.76614 23.1481 6.91544 22.9988ZM35.5012 26.7488L40.8358 32.0834L39.3333 33.5858L33.9988 28.2513L33.4587 27.7112L32.7955 28.0901C31.4322 28.8692 29.9378 29.4167 28.2917 29.4167C23.6356 29.4167 19.9167 25.6978 19.9167 21.0417C19.9167 16.3857 23.6356 12.6667 28.2917 12.6667C32.9477 12.6667 36.6667 16.3857 36.6667 21.0417C36.6667 22.6878 36.1191 24.1822 35.3401 25.5456L34.9611 26.2087L35.5012 26.7488ZM15.6936 31.9341C15.6956 31.93 15.6975 31.9265 15.6992 31.9233L17.1928 30.4298C17.6347 30.9135 18.1178 31.383 18.624 31.7952L17.1679 33.2513C17.0186 33.4006 16.909 33.4728 16.8178 33.5133C16.731 33.5519 16.6125 33.5834 16.4167 33.5834C16.3588 33.5834 16.1814 33.5589 15.8738 33.2513C15.7245 33.102 15.6523 32.9924 15.6117 32.9012C15.5731 32.8143 15.5417 32.6959 15.5417 32.5C15.5417 32.4739 15.5455 32.4208 15.56 32.3441C15.5741 32.27 15.595 32.1898 15.6206 32.1131C15.6465 32.0353 15.6729 31.974 15.6936 31.9341ZM15.7081 31.9079C15.7092 31.9062 15.7098 31.9054 15.7098 31.9054C15.7098 31.9055 15.7092 31.9064 15.7081 31.9079ZM15.6654 31.9571L15.6661 31.9565L15.6654 31.9571ZM11.2904 27.3738L14.1062 24.5581C14.2963 25.3546 14.5389 26.1182 14.8334 26.8729L12.7799 29.0975C12.6372 29.2381 12.5314 29.3073 12.4428 29.3466C12.356 29.3853 12.2375 29.4167 12.0417 29.4167C11.9829 29.4167 11.8489 29.398 11.6839 29.332C11.5232 29.2677 11.385 29.1792 11.2904 29.0846C11.1411 28.9353 11.0689 28.8257 11.0284 28.7345C10.9898 28.6477 10.9583 28.5292 10.9583 28.3334C10.9583 27.9069 11.1037 27.5605 11.2904 27.3738ZM20.2488 36.1238L22.1985 34.1741C22.8847 34.5401 23.6109 34.8091 24.37 35.0075L21.7512 37.6263C21.6019 37.7756 21.4924 37.8478 21.4011 37.8883C21.3143 37.9269 21.1958 37.9584 21 37.9584C20.8042 37.9584 20.6857 37.9269 20.5988 37.8883C20.5076 37.8478 20.3981 37.7756 20.2488 37.6263C20.0995 37.477 20.0273 37.3674 19.9867 37.2762C19.9481 37.1893 19.9167 37.0709 19.9167 36.875C19.9167 36.6792 19.9481 36.5608 19.9867 36.4739C20.0273 36.3827 20.0995 36.2731 20.2488 36.1238ZM34.5 21.0417C34.5 17.5728 31.7606 14.8334 28.2917 14.8334C24.8227 14.8334 22.0833 17.5728 22.0833 21.0417C22.0833 24.5107 24.8227 27.25 28.2917 27.25C31.7606 27.25 34.5 24.5107 34.5 21.0417Z" stroke="#1EBEB6" stroke-width="2"/>
</svg>
