<svg width="38" height="48" viewBox="0 0 38 48" fill="none" xmlns="http://www.w3.org/2000/svg">
<path d="M15.3278 13.3451C15.3097 13.3393 15.2915 13.3338 15.2732 13.3286C15.0897 13.3329 14.9081 13.3642 14.7344 13.4213L15.3278 13.3451ZM15.3278 13.3451L15.3281 13.8281M15.3278 13.3451L15.3281 13.8281M15.3281 13.8281L15.3321 13.3464C15.4774 13.3929 15.6177 13.4558 15.75 13.5344L15.3281 13.8281ZM17.5677 20.2136C17.9478 20.2995 18.3442 20.3438 18.75 20.3438C19.155 20.3438 19.5488 20.3012 19.9241 20.218C19.574 20.4076 19.1739 20.5156 18.75 20.5156C18.3228 20.5156 17.9198 20.4059 17.5677 20.2136ZM13.4628 14.9751C13.4593 15.0042 13.4566 15.0333 13.4545 15.0625H13.4321C13.438 15.0439 13.4442 15.0257 13.4507 15.0081L13.4628 14.9751ZM14.0245 13.8477C13.9561 13.9133 13.8925 13.9843 13.8345 14.0601C13.6975 14.2389 13.5944 14.4406 13.5296 14.6552L13.3143 14.463L13.2705 14.4239L13.2705 14.4239L13.2675 14.4212C13.2516 14.4073 13.2391 14.39 13.2309 14.3706C13.2226 14.3511 13.2188 14.3301 13.2198 14.309C13.2208 14.2879 13.2265 14.2673 13.2366 14.2488C13.2466 14.2302 13.2607 14.2141 13.2778 14.2017L13.2778 14.2018L13.2823 14.1984C13.492 14.0428 13.7497 13.9238 14.0245 13.8477ZM24.1156 15.0625H24.0924C24.0902 15.0324 24.0874 15.0024 24.0838 14.9724L24.0943 15.0006C24.1019 15.0208 24.109 15.0415 24.1156 15.0625ZM24.228 14.4534L24.0144 14.6456C23.9494 14.4346 23.8473 14.2362 23.7124 14.0601C23.6562 13.9867 23.5948 13.9178 23.5288 13.8539C23.7953 13.9302 24.0448 14.047 24.2489 14.1984L24.2489 14.1985L24.2562 14.2037C24.2863 14.2252 24.3087 14.263 24.3112 14.3112C24.3136 14.3578 24.2966 14.3932 24.2699 14.4159L24.2645 14.4205L24.2593 14.4252L24.228 14.4534ZM19.616 17.5225L19.6159 17.5225L19.6194 17.5331C19.6806 17.7166 19.5426 17.9219 19.3281 17.9219H18.1719C17.9831 17.9219 17.8244 17.7216 17.8845 17.5209C17.8846 17.5206 17.8847 17.5203 17.8848 17.52L18.6645 14.9937C18.6646 14.9934 18.6647 14.9931 18.6647 14.9929C18.6737 14.9649 18.6853 14.9547 18.6936 14.949C18.7054 14.941 18.7249 14.9336 18.75 14.9336C18.775 14.9336 18.7946 14.941 18.8064 14.949C18.8147 14.9547 18.8263 14.9649 18.8352 14.9929C18.8353 14.9931 18.8354 14.9934 18.8355 14.9937L19.616 17.5225Z" stroke="black"/>
<path d="M15.5713 15.0623H15.4983C15.5093 15.0443 15.5196 15.0258 15.5291 15.0068C15.5454 15.0234 15.5596 15.0421 15.5713 15.0623ZM22.4616 15.0623H22.3912C22.4018 15.0449 22.4117 15.027 22.4209 15.0087C22.4365 15.0248 22.4502 15.0428 22.4616 15.0623Z" stroke="black"/>
<mask id="path-3-inside-1_154_13" fill="white">
<path d="M36.1609 47.4624H1.8125C1.3981 47.4624 1.00067 47.2978 0.707646 47.0047C0.41462 46.7117 0.25 46.3143 0.25 45.8999C0.25 43.0968 0.25 37.2593 1.82344 33.2436C3.0111 30.0687 5.00779 27.2592 7.61563 25.0936C6.64908 24.1805 5.98429 22.994 5.7101 21.6929C5.43592 20.3918 5.5654 19.0379 6.08125 17.8124C5.66243 16.8078 5.49695 15.7156 5.5994 14.632C5.70185 13.5484 6.06907 12.5066 6.66875 11.5983C7.03125 11.0296 7.225 10.3686 7.22656 9.69519C7.22861 7.99669 7.87988 6.36322 9.04704 5.12925C10.2142 3.89528 11.8089 3.15418 13.5047 3.05769H13.5391C14.1627 2.27933 14.9533 1.65107 15.8524 1.21934C16.7516 0.787621 17.7362 0.563477 18.7336 0.563477C19.731 0.563477 20.7156 0.787621 21.6148 1.21934C22.5139 1.65107 23.3045 2.27933 23.9281 3.05769C24.0188 3.05874 24.1089 3.06499 24.1984 3.07644L24.2578 3.08269C25.8974 3.2488 27.4165 4.01919 28.5192 5.24384C29.622 6.46848 30.2295 8.05972 30.2234 9.70769C30.2234 10.3796 30.4172 11.0389 30.7828 11.6046C31.38 12.516 31.7454 13.5596 31.8473 14.6446C31.9491 15.7295 31.7843 16.8229 31.3672 17.8296C31.8813 19.0512 32.0106 20.4006 31.7379 21.6977C31.4651 22.9948 30.8032 24.1778 29.8406 25.0889C32.5079 27.2277 34.5453 30.0497 35.7359 33.2546C37.2346 37.2988 37.9093 41.602 37.7203 45.9108C37.7174 46.3228 37.552 46.7169 37.2599 47.0075C36.9679 47.2981 36.5729 47.4616 36.1609 47.4624ZM3.38281 44.3374H18.1563V39.4374H18.1406V33.828C18.1383 33.7695 18.1278 33.7117 18.1094 33.6561L14.3266 24.8561C13.8544 25.6398 13.6063 26.5381 13.6094 27.453V29.8968C14.5751 30.0757 15.4477 30.5872 16.0757 31.3424C16.7036 32.0976 17.0472 33.0489 17.0469 34.0311V39.703C17.0469 40.2655 16.5938 40.7186 16.0313 40.7186H14.5781C14.3751 40.7186 14.1803 40.638 14.0367 40.4944C13.8932 40.3508 13.8125 40.1561 13.8125 39.953C13.8125 39.75 13.8932 39.5552 14.0367 39.4116C14.1803 39.268 14.3751 39.1874 14.5781 39.1874H15.5156V34.0311C15.5156 33.3225 15.2341 32.6429 14.7331 32.1418C14.232 31.6408 13.5524 31.3593 12.8438 31.3593C12.1351 31.3593 11.4555 31.6408 10.9544 32.1418C10.4534 32.6429 10.1719 33.3225 10.1719 34.0311V39.1874H11.2188C11.4218 39.1874 11.6165 39.268 11.7601 39.4116C11.9037 39.5552 11.9844 39.75 11.9844 39.953C11.9844 40.1561 11.9037 40.3508 11.7601 40.4944C11.6165 40.638 11.4218 40.7186 11.2188 40.7186H9.65625C9.52288 40.7186 9.39081 40.6924 9.26759 40.6413C9.14437 40.5903 9.03241 40.5155 8.9381 40.4212C8.84379 40.3269 8.76898 40.2149 8.71794 40.0917C8.6669 39.9684 8.64063 39.8364 8.64063 39.703V34.0311C8.64026 33.0489 8.98388 32.0976 9.61182 31.3424C10.2398 30.5872 11.1124 30.0757 12.0781 29.8968V27.453C12.0781 26.9145 12.1396 26.3947 12.2625 25.8936C10.9516 26.6639 9.58438 27.6655 8.12344 28.9093C6.63095 30.4798 5.47784 32.3408 4.73594 34.3764C3.75032 37.602 3.29337 40.9658 3.38281 44.3374ZM15.4688 24.6405V24.7343C15.4688 25.6045 15.8145 26.4391 16.4298 27.0545C17.0452 27.6698 17.8798 28.0155 18.75 28.0155C19.6202 28.0155 20.4548 27.6698 21.0702 27.0545C21.6855 26.4391 22.0313 25.6045 22.0313 24.7343V24.6405C21.0219 25.0468 19.9109 25.2655 18.75 25.2655C17.5891 25.2655 16.4781 25.0468 15.4688 24.6405ZM25.0563 25.7936C25.1948 26.3249 25.2646 26.878 25.2656 27.453V36.7421C25.6856 36.9153 26.0328 37.2285 26.2482 37.6286C26.4636 38.0286 26.534 38.4908 26.4475 38.9369C26.361 39.3829 26.1229 39.7853 25.7736 40.0758C25.4243 40.3663 24.9852 40.527 24.5309 40.5307C24.0766 40.5344 23.6349 40.3809 23.2809 40.0961C22.9269 39.8114 22.6822 39.4129 22.5884 38.9684C22.4947 38.5238 22.5576 38.0605 22.7664 37.657C22.9753 37.2535 23.3173 36.9347 23.7344 36.7546V27.453C23.7344 26.5858 23.5156 25.7718 23.1328 25.0593L19.4375 33.6561L19.4297 33.6874C19.4148 33.7328 19.4068 33.7802 19.4063 33.828H19.3906V44.3374H34.5984C34.6406 40.9364 34.0405 37.558 32.8297 34.3796C31.8931 31.8121 30.2929 29.5386 28.1922 27.7905C27.1896 27.06 26.1423 26.3931 25.0563 25.7936ZM12.7016 10.8186L12.6313 10.8468L12.6219 10.8514L12.6047 10.8577L12.6 10.8608L12.5422 10.8843C12.3078 11.0139 11.7875 11.3811 11.7656 12.3921L11.7625 12.4514L11.775 12.7905C11.7817 12.9614 11.7321 13.1298 11.6339 13.2698C11.5357 13.4097 11.3942 13.5136 11.2313 13.5655C10.8611 13.6825 10.5399 13.9182 10.3172 14.2361C10.0945 14.554 9.98284 14.9365 9.99938 15.3243C10.0159 15.7121 10.1598 16.0836 10.4087 16.3814C10.6577 16.6792 10.9978 16.8867 11.3766 16.9718C11.5372 17.0075 11.6825 17.0931 11.7916 17.2162C11.9008 17.3394 11.9682 17.4939 11.9844 17.6577C12.3469 21.2936 15.2188 23.703 18.75 23.703C22.2734 23.703 25.1406 21.303 25.5141 17.678C25.5312 17.5089 25.603 17.3499 25.7186 17.2253C25.8342 17.1006 25.9873 17.0171 26.1547 16.9874C26.5501 16.9171 26.9098 16.7141 27.1743 16.4119C27.4389 16.1097 27.5925 15.7263 27.6098 15.325C27.6271 14.9238 27.507 14.5286 27.2695 14.2047C27.0319 13.8809 26.6911 13.6477 26.3031 13.5436C26.1321 13.4977 25.9818 13.3951 25.8768 13.2526C25.7718 13.1101 25.7182 12.9362 25.725 12.7593L25.7344 12.5608C25.7188 11.7702 25.4484 11.4811 25.2828 11.3608C25.1358 11.2559 24.9617 11.1957 24.7813 11.1874H22.9188C23.4406 11.2686 23.95 11.4374 24.4203 11.6952C24.4673 11.7226 24.5084 11.759 24.5414 11.8023C24.5743 11.8455 24.5984 11.8949 24.6122 11.9475C24.6261 12.0001 24.6294 12.0549 24.6221 12.1088C24.6148 12.1627 24.5969 12.2146 24.5695 12.2616C24.5421 12.3086 24.5058 12.3497 24.4625 12.3827C24.4192 12.4156 24.3698 12.4397 24.3172 12.4535C24.2646 12.4674 24.2098 12.4707 24.1559 12.4634C24.102 12.4561 24.0501 12.4382 24.0031 12.4108C23.2746 12.0303 22.4446 11.8892 21.6313 12.0077C21.5505 12.0237 21.4669 12.0153 21.391 11.9834C21.3151 11.9515 21.2505 11.8977 21.2055 11.8288C21.1605 11.7599 21.1371 11.6792 21.1383 11.5969C21.1396 11.5146 21.1654 11.4346 21.2125 11.3671C21.2462 11.318 21.29 11.2766 21.3409 11.2456C21.3918 11.2146 21.4487 11.1948 21.5078 11.1874H19.875C18.9037 11.1876 17.9441 10.9757 17.0633 10.5666C16.1824 10.1574 15.4014 9.56088 14.775 8.81863C14.3339 9.703 13.6025 10.4091 12.7031 10.8186"/>
</mask>
<path d="M36.1609 47.4624L36.1609 48.4624L36.1629 48.4624L36.1609 47.4624ZM1.82344 33.2436L2.75451 33.6085L2.75734 33.6012L2.76005 33.594L1.82344 33.2436ZM7.61563 25.0936L8.25449 25.863L9.12281 25.1419L8.30238 24.3667L7.61563 25.0936ZM6.08125 17.8124L7.00293 18.2003L7.16544 17.8142L7.00425 17.4276L6.08125 17.8124ZM6.66875 11.5983L7.50328 12.1493L7.50771 12.1426L7.51203 12.1358L6.66875 11.5983ZM7.22656 9.69519L8.22656 9.69751L8.22656 9.6964L7.22656 9.69519ZM13.5047 3.05769V2.05769H13.4763L13.4479 2.05931L13.5047 3.05769ZM13.5391 3.05769V4.05769H14.0192L14.3195 3.68298L13.5391 3.05769ZM23.9281 3.05769L23.1477 3.68298L23.4436 4.05219L23.9166 4.05763L23.9281 3.05769ZM24.1984 3.07644L24.0716 4.06836L24.0826 4.06978L24.0938 4.07095L24.1984 3.07644ZM24.2578 3.08269L24.1531 4.07721L24.157 4.0776L24.2578 3.08269ZM30.2234 9.70769L29.2234 9.70402V9.70769L30.2234 9.70769ZM30.7828 11.6046L29.943 12.1474L29.9464 12.1526L30.7828 11.6046ZM31.3672 17.8296L30.4434 17.4468L30.2835 17.8326L30.4455 18.2175L31.3672 17.8296ZM29.8406 25.0889L29.1532 24.3627L28.32 25.1514L29.215 25.8691L29.8406 25.0889ZM35.7359 33.2546L36.6736 32.9071L36.6733 32.9063L35.7359 33.2546ZM37.7203 45.9108L36.7213 45.867L36.7205 45.8854L36.7203 45.9038L37.7203 45.9108ZM3.38281 44.3374L2.38316 44.3639L2.40899 45.3374H3.38281V44.3374ZM18.1563 44.3374V45.3374H19.1563V44.3374H18.1563ZM18.1563 39.4374H19.1563V38.4374H18.1563V39.4374ZM18.1406 39.4374H17.1406V40.4374H18.1406V39.4374ZM18.1406 33.828H19.1406V33.8082L19.1398 33.7884L18.1406 33.828ZM18.1094 33.6561L19.0586 33.3415L19.0451 33.3007L19.0281 33.2612L18.1094 33.6561ZM14.3266 24.8561L15.2453 24.4612L14.4757 22.6709L13.47 24.3401L14.3266 24.8561ZM13.6094 27.453L14.6094 27.453L14.6094 27.4497L13.6094 27.453ZM13.6094 29.8968H12.6094V30.7285L13.4272 30.88L13.6094 29.8968ZM17.0469 34.0311L16.0469 34.0308V34.0311H17.0469ZM14.5781 40.7186V41.7186V40.7186ZM15.5156 39.1874V40.1874H16.5156V39.1874H15.5156ZM15.5156 34.0311H14.5156H15.5156ZM12.8438 31.3593L12.8438 30.3593L12.8438 31.3593ZM10.1719 39.1874H9.17188V40.1874H10.1719V39.1874ZM9.65625 40.7186V41.7186V40.7186ZM8.64063 39.703H9.64063H8.64063ZM8.64063 34.0311L9.64063 34.0311L9.64063 34.0308L8.64063 34.0311ZM12.0781 29.8968L12.2603 30.88L13.0781 30.7285V29.8968H12.0781ZM12.2625 25.8936L13.2337 26.1319L13.798 23.8315L11.7559 25.0315L12.2625 25.8936ZM8.12344 28.9093L7.4752 28.1478L7.43495 28.1821L7.39855 28.2204L8.12344 28.9093ZM4.73594 34.3764L3.79639 34.034L3.78733 34.0589L3.77959 34.0842L4.73594 34.3764ZM15.4688 24.6405L15.8421 23.7128L14.4688 23.1601V24.6405H15.4688ZM22.0313 24.6405H23.0313V23.1601L21.6579 23.7128L22.0313 24.6405ZM25.0563 25.7936L25.5395 24.9182L23.5011 23.793L24.0886 26.046L25.0563 25.7936ZM25.2656 27.453L26.2656 27.453L26.2656 27.4512L25.2656 27.453ZM25.2656 36.7421H24.2656V37.4113L24.8843 37.6665L25.2656 36.7421ZM23.7344 36.7546L24.1308 37.6726L24.7344 37.412V36.7546H23.7344ZM23.1328 25.0593L24.0137 24.586L23.0327 22.76L22.2141 24.6644L23.1328 25.0593ZM19.4375 33.6561L18.5188 33.2612L18.4869 33.3353L18.4674 33.4136L19.4375 33.6561ZM19.4297 33.6874L20.3796 33.9999L20.391 33.9653L20.3998 33.93L19.4297 33.6874ZM19.4063 33.828V34.828H20.3938L20.4062 33.8405L19.4063 33.828ZM19.3906 33.828V32.828H18.3906V33.828H19.3906ZM19.3906 44.3374H18.3906V45.3374H19.3906V44.3374ZM34.5984 44.3374V45.3374H35.5861L35.5984 44.3498L34.5984 44.3374ZM32.8297 34.3796L31.8902 34.7223L31.8927 34.7289L31.8952 34.7356L32.8297 34.3796ZM28.1922 27.7905L28.8318 27.0218L28.8071 27.0012L28.7811 26.9823L28.1922 27.7905ZM12.6313 10.8468L12.2599 9.91828L12.2212 9.93374L12.184 9.95236L12.6313 10.8468ZM12.6219 10.8514L12.9636 11.7912L13.0177 11.7716L13.0691 11.7458L12.6219 10.8514ZM12.6047 10.8577L12.2629 9.9179L12.15 9.95899L12.0499 10.0257L12.6047 10.8577ZM12.6 10.8608L12.9757 11.7876L13.0701 11.7493L13.1548 11.6928L12.6 10.8608ZM12.5422 10.8843L12.1665 9.95751L12.1107 9.98013L12.058 10.0093L12.5422 10.8843ZM11.7656 12.3921L12.7642 12.4446L12.7651 12.4292L12.7654 12.4137L11.7656 12.3921ZM11.7625 12.4514L10.7639 12.3989L10.7615 12.4436L10.7632 12.4883L11.7625 12.4514ZM11.775 12.7905L10.7757 12.8274L10.7758 12.8296L11.775 12.7905ZM11.2313 13.5655L11.5326 14.519L11.5345 14.5184L11.2313 13.5655ZM11.3766 16.9718L11.1575 17.9475L11.1594 17.9479L11.3766 16.9718ZM11.9844 17.6577L10.9892 17.7558L10.9893 17.7569L11.9844 17.6577ZM25.5141 17.678L26.5088 17.7805L26.509 17.7786L25.5141 17.678ZM26.1547 16.9874L26.3296 17.972L26.3297 17.972L26.1547 16.9874ZM26.3031 13.5436L26.0439 14.5094L26.0441 14.5095L26.3031 13.5436ZM25.725 12.7593L24.7261 12.7121L24.7257 12.7211L25.725 12.7593ZM25.7344 12.5608L26.7333 12.608L26.7348 12.5745L26.7342 12.5411L25.7344 12.5608ZM25.2828 11.3608L25.8706 10.5517L25.8638 10.5469L25.2828 11.3608ZM24.7813 11.1874L24.8272 10.1884L24.8042 10.1874H24.7813V11.1874ZM22.9188 11.1874V10.1874L22.7649 12.1755L22.9188 11.1874ZM24.4203 11.6952L24.924 10.8313L24.9126 10.8246L24.901 10.8183L24.4203 11.6952ZM24.0031 12.4108L24.5068 11.5469L24.4867 11.5352L24.4661 11.5245L24.0031 12.4108ZM21.6313 12.0077L21.4871 11.0181L21.4615 11.0219L21.4362 11.0269L21.6313 12.0077ZM21.2125 11.3671L22.0326 11.9393L22.0367 11.9334L21.2125 11.3671ZM21.5078 11.1874L21.632 12.1796L21.5078 10.1874V11.1874ZM19.875 11.1874L19.875 10.1874L19.8748 10.1874L19.875 11.1874ZM14.775 8.81863L15.5392 8.17367L14.5587 7.01181L13.8801 8.37233L14.775 8.81863ZM36.1609 46.4624H1.8125V48.4624H36.1609V46.4624ZM1.8125 46.4624C1.66332 46.4624 1.52024 46.4031 1.41475 46.2976L0.000539233 47.7118C0.481099 48.1924 1.13288 48.4624 1.8125 48.4624V46.4624ZM1.41475 46.2976C1.30926 46.1921 1.25 46.0491 1.25 45.8999H-0.75C-0.75 46.5795 -0.480022 47.2313 0.000539233 47.7118L1.41475 46.2976ZM1.25 45.8999C1.25 43.0464 1.26338 37.414 2.75451 33.6085L0.892361 32.8788C-0.763375 37.1045 -0.75 43.1471 -0.75 45.8999H1.25ZM2.76005 33.594C3.88666 30.5823 5.78071 27.9172 8.25449 25.863L6.97676 24.3243C4.23487 26.6012 2.13554 29.5551 0.886825 32.8933L2.76005 33.594ZM8.30238 24.3667C7.48382 23.5934 6.92082 22.5886 6.68861 21.4867L4.73159 21.8991C5.04776 23.3994 5.81434 24.7675 6.92887 25.8205L8.30238 24.3667ZM6.68861 21.4867C6.45641 20.3848 6.56607 19.2382 7.00293 18.2003L5.15957 17.4244C4.56474 18.8376 4.41543 20.3988 4.73159 21.8991L6.68861 21.4867ZM7.00425 17.4276C6.64849 16.5743 6.50794 15.6466 6.59496 14.7261L4.60384 14.5379C4.48597 15.7847 4.67636 17.0413 5.15825 18.1972L7.00425 17.4276ZM6.59496 14.7261C6.68198 13.8057 6.9939 12.9208 7.50328 12.1493L5.83422 11.0474C5.14424 12.0925 4.72171 13.2911 4.60384 14.5379L6.59496 14.7261ZM7.51203 12.1358C7.97627 11.4074 8.22456 10.5609 8.22656 9.69751L6.22657 9.69287C6.22544 10.1763 6.08623 10.6517 5.82547 11.0608L7.51203 12.1358ZM8.22656 9.6964C8.2283 8.25306 8.78173 6.865 9.77354 5.81642L8.32054 4.44208C6.97803 5.86144 6.22891 7.74031 6.22656 9.69399L8.22656 9.6964ZM9.77354 5.81642C10.7653 4.76783 12.1205 4.13807 13.5615 4.05608L13.4479 2.05931C11.4974 2.17029 9.66304 3.02273 8.32054 4.44208L9.77354 5.81642ZM13.5047 4.05769H13.5391V2.05769H13.5047V4.05769ZM14.3195 3.68298C14.8494 3.02155 15.5212 2.48767 16.2853 2.12081L15.4196 0.317878C14.3854 0.81446 13.476 1.53711 12.7587 2.43241L14.3195 3.68298ZM16.2853 2.12081C17.0493 1.75395 17.886 1.56348 18.7336 1.56348V-0.436523C17.5864 -0.436523 16.4538 -0.178704 15.4196 0.317878L16.2853 2.12081ZM18.7336 1.56348C19.5811 1.56348 20.4179 1.75395 21.1819 2.12081L22.0476 0.317878C21.0134 -0.178704 19.8808 -0.436523 18.7336 -0.436523V1.56348ZM21.1819 2.12081C21.9459 2.48767 22.6178 3.02155 23.1477 3.68298L24.7085 2.43241C23.9912 1.53711 23.0818 0.81446 22.0476 0.317878L21.1819 2.12081ZM23.9166 4.05763C23.9688 4.05823 24.0204 4.06182 24.0716 4.06836L24.3253 2.08453C24.1973 2.06815 24.0687 2.05924 23.9396 2.05776L23.9166 4.05763ZM24.0938 4.07095L24.1531 4.0772L24.3625 2.08819L24.3031 2.08194L24.0938 4.07095ZM24.157 4.0776C25.5495 4.21867 26.8396 4.87294 27.7761 5.91299L29.2624 4.57468C27.9934 3.16544 26.2453 2.27893 24.3586 2.08779L24.157 4.0776ZM27.7761 5.91299C28.7127 6.95305 29.2286 8.30444 29.2234 9.70402L31.2234 9.71137C31.2304 7.815 30.5313 5.98392 29.2624 4.57468L27.7761 5.91299ZM29.2234 9.70769C29.2234 10.5716 29.4725 11.4196 29.943 12.1474L31.6226 11.0617C31.3619 10.6583 31.2234 10.1875 31.2234 9.70769L29.2234 9.70769ZM29.9464 12.1526C30.4543 12.9278 30.765 13.8153 30.8517 14.738L32.8429 14.5511C32.7258 13.304 32.3058 12.1043 31.6193 11.0565L29.9464 12.1526ZM30.8517 14.738C30.9383 15.6607 30.7981 16.5906 30.4434 17.4468L32.291 18.2124C32.7705 17.0551 32.96 15.7983 32.8429 14.5511L30.8517 14.738ZM30.4455 18.2175C30.8807 19.2516 30.9902 20.3939 30.7593 21.4919L32.7165 21.9035C33.0311 20.4074 32.8819 18.8509 32.2889 17.4417L30.4455 18.2175ZM30.7593 21.4919C30.5284 22.5899 29.9681 23.5914 29.1532 24.3627L30.528 25.8152C31.6384 24.7642 32.4018 23.3996 32.7165 21.9035L30.7593 21.4919ZM29.215 25.8691C31.7412 27.8948 33.6709 30.5675 34.7985 33.6028L36.6733 32.9063C35.4197 29.532 33.2745 26.5607 30.4662 24.3088L29.215 25.8691ZM34.7983 33.6021C36.2506 37.5213 36.9044 41.6914 36.7213 45.867L38.7194 45.9546C38.9142 41.5126 38.2187 37.0764 36.6736 32.9071L34.7983 33.6021ZM36.7203 45.9038C36.7193 46.0521 36.6597 46.194 36.5546 46.2986L37.9653 47.7164C38.4442 47.2398 38.7156 46.5934 38.7203 45.9178L36.7203 45.9038ZM36.5546 46.2986C36.4495 46.4032 36.3073 46.4621 36.159 46.4624L36.1629 48.4624C36.8385 48.461 37.4863 48.1929 37.9653 47.7164L36.5546 46.2986ZM3.38281 45.3374H18.1563V43.3374H3.38281V45.3374ZM19.1563 44.3374V39.4374H17.1563V44.3374H19.1563ZM18.1563 38.4374H18.1406V40.4374H18.1563V38.4374ZM19.1406 39.4374V33.828H17.1406V39.4374H19.1406ZM19.1398 33.7884C19.1338 33.6364 19.1065 33.4859 19.0586 33.3415L17.1602 33.9708C17.1491 33.9374 17.1428 33.9027 17.1414 33.8676L19.1398 33.7884ZM19.0281 33.2612L15.2453 24.4612L13.4078 25.2511L17.1907 34.0511L19.0281 33.2612ZM13.47 24.3401C12.9034 25.2805 12.6057 26.3584 12.6094 27.4563L14.6094 27.4497C14.6069 26.7177 14.8054 25.9991 15.1831 25.3722L13.47 24.3401ZM12.6094 27.453V29.8968H14.6094V27.453H12.6094ZM13.4272 30.88C14.1632 31.0164 14.8282 31.4062 15.3067 31.9817L16.8446 30.7031C16.0673 29.7681 14.9871 29.135 13.7915 28.9135L13.4272 30.88ZM15.3067 31.9817C15.7853 32.5573 16.0472 33.2822 16.0469 34.0308L18.0469 34.0315C18.0473 32.8156 17.622 31.638 16.8446 30.7031L15.3067 31.9817ZM16.0469 34.0311V39.703H18.0469V34.0311H16.0469ZM16.0469 39.703C16.0469 39.706 16.0466 39.7078 16.0464 39.7086C16.0463 39.7094 16.0461 39.71 16.0459 39.7105C16.0454 39.7115 16.0445 39.713 16.0429 39.7147C16.0413 39.7163 16.0397 39.7172 16.0387 39.7176C16.0382 39.7178 16.0376 39.718 16.0368 39.7182C16.036 39.7183 16.0343 39.7186 16.0313 39.7186V41.7186C17.146 41.7186 18.0469 40.8178 18.0469 39.703H16.0469ZM16.0313 39.7186H14.5781V41.7186H16.0313V39.7186ZM14.5781 39.7186C14.6403 39.7186 14.6999 39.7433 14.7439 39.7873L13.3296 41.2015C13.6608 41.5326 14.1098 41.7186 14.5781 41.7186L14.5781 39.7186ZM14.7439 39.7873C14.7878 39.8312 14.8125 39.8908 14.8125 39.953H12.8125C12.8125 40.4213 12.9985 40.8704 13.3296 41.2015L14.7439 39.7873ZM14.8125 39.953C14.8125 40.0152 14.7878 40.0748 14.7439 40.1187L13.3296 38.7045C12.9985 39.0356 12.8125 39.4847 12.8125 39.953H14.8125ZM14.7439 40.1187C14.6999 40.1627 14.6403 40.1874 14.5781 40.1874V38.1874C14.1098 38.1874 13.6608 38.3734 13.3296 38.7045L14.7439 40.1187ZM14.5781 40.1874H15.5156V38.1874H14.5781V40.1874ZM16.5156 39.1874V34.0311H14.5156V39.1874H16.5156ZM16.5156 34.0311C16.5156 33.0573 16.1288 32.1233 15.4402 31.4347L14.0259 32.8489C14.3395 33.1625 14.5156 33.5877 14.5156 34.0311L16.5156 34.0311ZM15.4402 31.4347C14.7516 30.7461 13.8176 30.3593 12.8438 30.3593L12.8438 32.3593C13.2872 32.3593 13.7124 32.5354 14.0259 32.8489L15.4402 31.4347ZM12.8438 30.3593C11.8699 30.3593 10.936 30.7461 10.2473 31.4347L11.6616 32.8489C11.9751 32.5354 12.4003 32.3593 12.8438 32.3593L12.8438 30.3593ZM10.2473 31.4347C9.55873 32.1233 9.17188 33.0573 9.17188 34.0311H11.1719C11.1719 33.5877 11.348 33.1625 11.6616 32.8489L10.2473 31.4347ZM9.17188 34.0311V39.1874H11.1719V34.0311H9.17188ZM10.1719 40.1874H11.2188V38.1874H10.1719V40.1874ZM11.2188 40.1874C11.1566 40.1874 11.097 40.1627 11.053 40.1187L12.4672 38.7045C12.1361 38.3734 11.687 38.1874 11.2188 38.1874V40.1874ZM11.053 40.1187C11.0091 40.0748 10.9844 40.0152 10.9844 39.953H12.9844C12.9844 39.4847 12.7984 39.0356 12.4672 38.7045L11.053 40.1187ZM10.9844 39.953C10.9844 39.8908 11.0091 39.8312 11.053 39.7873L12.4672 41.2015C12.7984 40.8704 12.9844 40.4213 12.9844 39.953H10.9844ZM11.053 39.7873C11.097 39.7433 11.1566 39.7186 11.2188 39.7186V41.7186C11.687 41.7186 12.1361 41.5326 12.4672 41.2015L11.053 39.7873ZM11.2188 39.7186H9.65625V41.7186H11.2188V39.7186ZM9.65625 39.7186C9.6542 39.7186 9.65217 39.7182 9.65027 39.7174L8.8849 41.5652C9.12945 41.6665 9.39156 41.7186 9.65625 41.7186L9.65625 39.7186ZM9.65027 39.7174C9.64838 39.7167 9.64666 39.7155 9.6452 39.7141L8.23099 41.1283C8.41815 41.3154 8.64035 41.4639 8.8849 41.5652L9.65027 39.7174ZM9.6452 39.7141C9.64375 39.7126 9.6426 39.7109 9.64182 39.709L7.79406 40.4744C7.89535 40.7189 8.04382 40.9411 8.23099 41.1283L9.6452 39.7141ZM9.64182 39.709C9.64103 39.7071 9.64063 39.7051 9.64063 39.703L7.64063 39.703C7.64063 39.9677 7.69276 40.2298 7.79406 40.4744L9.64182 39.709ZM9.64063 39.703V34.0311H7.64063V39.703H9.64063ZM9.64063 34.0308C9.64035 33.2822 9.90221 32.5573 10.3808 31.9817L8.84288 30.7031C8.06554 31.638 7.64017 32.8156 7.64063 34.0315L9.64063 34.0308ZM10.3808 31.9817C10.8593 31.4062 11.5243 31.0164 12.2603 30.88L11.896 28.9135C10.7004 29.135 9.62022 29.7681 8.84288 30.7031L10.3808 31.9817ZM13.0781 29.8968V27.453H11.0781V29.8968H13.0781ZM13.0781 27.453C13.0781 26.9912 13.1307 26.5516 13.2337 26.1319L11.2913 25.6554C11.1484 26.2377 11.0781 26.8377 11.0781 27.453H13.0781ZM11.7559 25.0315C10.382 25.8388 8.96722 26.8776 7.4752 28.1478L8.77168 29.6707C10.2015 28.4534 11.5211 27.4891 12.7691 26.7558L11.7559 25.0315ZM7.39855 28.2204C5.81149 29.8905 4.58531 31.8694 3.79639 34.034L5.67548 34.7189C6.37037 32.8123 7.45041 31.0691 8.84833 29.5981L7.39855 28.2204ZM3.77959 34.0842C2.76243 37.413 2.29085 40.8844 2.38316 44.3639L4.38246 44.3109C4.29588 41.0472 4.73821 37.791 5.69229 34.6687L3.77959 34.0842ZM14.4688 24.6405V24.7343H16.4688V24.6405H14.4688ZM14.4688 24.7343C14.4688 25.8697 14.9198 26.9587 15.7227 27.7616L17.1369 26.3473C16.7091 25.9195 16.4688 25.3393 16.4688 24.7343H14.4688ZM15.7227 27.7616C16.5256 28.5644 17.6145 29.0155 18.75 29.0155V27.0155C18.145 27.0155 17.5647 26.7752 17.1369 26.3473L15.7227 27.7616ZM18.75 29.0155C19.8855 29.0155 20.9744 28.5644 21.7773 27.7616L20.3631 26.3473C19.9353 26.7752 19.355 27.0155 18.75 27.0155V29.0155ZM21.7773 27.7616C22.5802 26.9587 23.0313 25.8697 23.0313 24.7343H21.0313C21.0313 25.3393 20.7909 25.9195 20.3631 26.3473L21.7773 27.7616ZM23.0313 24.7343V24.6405H21.0313V24.7343H23.0313ZM21.6579 23.7128C20.7691 24.0705 19.7851 24.2655 18.75 24.2655V26.2655C20.0368 26.2655 21.2746 26.023 22.4046 25.5682L21.6579 23.7128ZM18.75 24.2655C17.7149 24.2655 16.7309 24.0705 15.8421 23.7128L15.0954 25.5682C16.2254 26.023 17.4632 26.2655 18.75 26.2655V24.2655ZM24.0886 26.046C24.2048 26.4916 24.2647 26.9604 24.2656 27.4548L26.2656 27.4512C26.2644 26.7957 26.1848 26.1581 26.0239 25.5413L24.0886 26.046ZM24.2656 27.453V36.7421H26.2656V27.453H24.2656ZM24.8843 37.6665C25.0909 37.7518 25.2617 37.9059 25.3677 38.1027L27.1286 37.1544C26.8038 36.5512 26.2803 36.0789 25.647 35.8176L24.8843 37.6665ZM25.3677 38.1027C25.4737 38.2995 25.5084 38.527 25.4658 38.7465L27.4293 39.1272C27.5597 38.4547 27.4535 37.7577 27.1286 37.1544L25.3677 38.1027ZM25.4658 38.7465C25.4233 38.9659 25.3061 39.1639 25.1342 39.3069L26.413 40.8447C26.9398 40.4066 27.2988 39.7998 27.4293 39.1272L25.4658 38.7465ZM25.1342 39.3069C24.9623 39.4498 24.7463 39.5289 24.5227 39.5307L24.539 41.5307C25.2241 41.5251 25.8862 41.2827 26.413 40.8447L25.1342 39.3069ZM24.5227 39.5307C24.2992 39.5326 24.0819 39.457 23.9076 39.3169L22.6541 40.8753C23.188 41.3047 23.8539 41.5363 24.539 41.5307L24.5227 39.5307ZM23.9076 39.3169C23.7334 39.1768 23.6131 38.9807 23.5669 38.762L21.61 39.1747C21.7514 39.8451 22.1203 40.4459 22.6541 40.8753L23.9076 39.3169ZM23.5669 38.762C23.5208 38.5432 23.5517 38.3152 23.6545 38.1167L21.8783 37.1973C21.5634 37.8057 21.4686 38.5044 21.61 39.1747L23.5669 38.762ZM23.6545 38.1167C23.7573 37.9182 23.9255 37.7613 24.1308 37.6726L23.338 35.8365C22.709 36.1081 22.1933 36.5889 21.8783 37.1973L23.6545 38.1167ZM24.7344 36.7546V27.453H22.7344V36.7546H24.7344ZM24.7344 27.453C24.7344 26.4154 24.4722 25.4393 24.0137 24.586L22.2519 25.5326C22.5591 26.1042 22.7344 26.7562 22.7344 27.453H24.7344ZM22.2141 24.6644L18.5188 33.2612L20.3562 34.051L24.0515 25.4542L22.2141 24.6644ZM18.4674 33.4136L18.4596 33.4448L20.3998 33.93L20.4076 33.8987L18.4674 33.4136ZM18.4798 33.3749C18.433 33.5172 18.4082 33.6658 18.4063 33.8155L20.4062 33.8405C20.4055 33.8947 20.3965 33.9484 20.3796 33.9999L18.4798 33.3749ZM19.4063 32.828H19.3906V34.828H19.4063V32.828ZM18.3906 33.828V44.3374H20.3906V33.828H18.3906ZM19.3906 45.3374H34.5984V43.3374H19.3906V45.3374ZM35.5984 44.3498C35.6421 40.823 35.0198 37.3196 33.7642 34.0236L31.8952 34.7356C33.0612 37.7964 33.6391 41.0498 33.5985 44.325L35.5984 44.3498ZM33.7691 34.0369C32.772 31.3034 31.0684 28.883 28.8318 27.0218L27.5525 28.5592C29.5175 30.1943 31.0142 32.3208 31.8902 34.7223L33.7691 34.0369ZM28.7811 26.9823C27.7447 26.2272 26.6621 25.5378 25.5395 24.9182L24.573 26.6691C25.6224 27.2484 26.6345 27.8928 27.6033 28.5987L28.7811 26.9823ZM12.3302 9.89015L12.2599 9.91828L13.0026 11.7752L13.0729 11.7471L12.3302 9.89015ZM12.184 9.95236L12.1746 9.95705L13.0691 11.7458L13.0785 11.7412L12.184 9.95236ZM12.2801 9.91165L12.2629 9.9179L12.9464 11.7975L12.9636 11.7912L12.2801 9.91165ZM12.0499 10.0257L12.0452 10.0288L13.1548 11.6928L13.1594 11.6897L12.0499 10.0257ZM12.2243 9.93408L12.1665 9.95751L12.9179 11.811L12.9757 11.7876L12.2243 9.93408ZM12.058 10.0093C11.8586 10.1196 11.5303 10.3362 11.2518 10.7388C10.9689 11.1478 10.7807 11.6862 10.7659 12.3704L12.7654 12.4137C12.7725 12.087 12.8553 11.9363 12.8967 11.8765C12.9424 11.8105 12.9914 11.7786 13.0263 11.7592L12.058 10.0093ZM10.767 12.3395L10.7639 12.3989L12.7611 12.504L12.7642 12.4446L10.767 12.3395ZM10.7632 12.4883L10.7757 12.8274L12.7743 12.7537L12.7618 12.4146L10.7632 12.4883ZM10.7758 12.8296C10.7739 12.7817 10.7878 12.7346 10.8153 12.6954L12.4525 13.8441C12.6764 13.5249 12.7895 13.141 12.7742 12.7514L10.7758 12.8296ZM10.8153 12.6954C10.8428 12.6562 10.8824 12.6271 10.928 12.6126L11.5345 14.5184C11.906 14.4002 12.2285 14.1633 12.4525 13.8441L10.8153 12.6954ZM10.9299 12.612C10.3501 12.7953 9.84695 13.1644 9.49815 13.6624L11.1363 14.8098C11.2329 14.6719 11.3722 14.5697 11.5326 14.519L10.9299 12.612ZM9.49815 13.6624C9.14935 14.1604 8.97437 14.7595 9.00029 15.3669L10.9985 15.2817C10.9913 15.1135 11.0397 14.9477 11.1363 14.8098L9.49815 13.6624ZM9.00029 15.3669C9.0262 15.9743 9.25156 16.5563 9.64151 17.0228L11.176 15.7401C11.068 15.6109 11.0056 15.4498 10.9985 15.2817L9.00029 15.3669ZM9.64151 17.0228C10.0315 17.4893 10.5642 17.8143 11.1575 17.9475L11.5957 15.9961C11.4314 15.9592 11.2839 15.8692 11.176 15.7401L9.64151 17.0228ZM11.1594 17.9479C11.1144 17.9379 11.0737 17.9139 11.0432 17.8794L12.5401 16.553C12.2912 16.2722 11.96 16.0771 11.5937 15.9956L11.1594 17.9479ZM11.0432 17.8794C11.0126 17.8449 10.9937 17.8017 10.9892 17.7558L12.9795 17.5596C12.9427 17.1861 12.7889 16.8339 12.5401 16.553L11.0432 17.8794ZM10.9893 17.7569C11.4055 21.9318 14.7332 24.703 18.75 24.703V22.703C15.7043 22.703 13.2882 20.6554 12.9794 17.5585L10.9893 17.7569ZM18.75 24.703C22.7582 24.703 26.08 21.9426 26.5088 17.7805L24.5193 17.5755C24.2012 20.6634 21.7887 22.703 18.75 22.703V24.703ZM26.509 17.7786C26.5042 17.8259 26.4841 17.8705 26.4517 17.9054L24.9854 16.5452C24.7218 16.8294 24.5581 17.1918 24.5191 17.5774L26.509 17.7786ZM26.4517 17.9054C26.4194 17.9403 26.3765 17.9636 26.3296 17.972L25.9798 16.0028C25.5981 16.0706 25.249 16.261 24.9854 16.5452L26.4517 17.9054ZM26.3297 17.972C26.9491 17.8619 27.5124 17.5439 27.9268 17.0705L26.4219 15.7533C26.3072 15.8843 26.1512 15.9723 25.9797 16.0028L26.3297 17.972ZM27.9268 17.0705C28.3412 16.5971 28.5817 15.9966 28.6088 15.3681L26.6107 15.282C26.6032 15.456 26.5366 15.6222 26.4219 15.7533L27.9268 17.0705ZM28.6088 15.3681C28.6359 14.7396 28.4479 14.1206 28.0758 13.6133L26.4631 14.7962C26.5661 14.9366 26.6182 15.108 26.6107 15.282L28.6088 15.3681ZM28.0758 13.6133C27.7037 13.106 27.1698 12.7407 26.5622 12.5778L26.0441 14.5095C26.2123 14.5546 26.3601 14.6557 26.4631 14.7962L28.0758 13.6133ZM26.5624 12.5778C26.6103 12.5907 26.6524 12.6194 26.6818 12.6593L25.0718 13.8459C25.3113 14.1708 25.654 14.4048 26.0439 14.5094L26.5624 12.5778ZM26.6818 12.6593C26.7112 12.6992 26.7262 12.7479 26.7243 12.7975L24.7257 12.7211C24.7103 13.1244 24.8323 13.521 25.0718 13.8459L26.6818 12.6593ZM26.7239 12.8064L26.7333 12.608L24.7355 12.5136L24.7261 12.7121L26.7239 12.8064ZM26.7342 12.5411C26.7242 12.0357 26.6314 11.617 26.4647 11.2732C26.2926 10.9183 26.0665 10.6941 25.8705 10.5518L24.6951 12.1699C24.6852 12.1627 24.6742 12.1531 24.6655 12.143C24.6569 12.133 24.6582 12.1316 24.665 12.1457C24.6788 12.1741 24.7289 12.2954 24.7346 12.5806L26.7342 12.5411ZM25.8638 10.5469C25.56 10.3301 25.2 10.2056 24.8272 10.1884L24.7353 12.1863C24.7233 12.1858 24.7117 12.1818 24.7019 12.1748L25.8638 10.5469ZM24.7813 10.1874H22.9188V12.1874H24.7813V10.1874ZM22.7649 12.1755C23.1768 12.2396 23.575 12.3722 23.9396 12.5721L24.901 10.8183C24.325 10.5026 23.7044 10.2977 23.0726 10.1993L22.7649 12.1755ZM23.9167 12.5591C23.8502 12.5204 23.792 12.4689 23.7455 12.4077L25.3373 11.1968C25.2248 11.049 25.0844 10.9248 24.924 10.8313L23.9167 12.5591ZM23.7455 12.4077C23.6989 12.3464 23.6648 12.2766 23.6452 12.2022L25.5792 11.6927C25.5319 11.5132 25.4497 11.3447 25.3373 11.1968L23.7455 12.4077ZM23.6452 12.2022C23.6256 12.1279 23.6209 12.0503 23.6312 11.9741L25.613 12.2435C25.638 12.0595 25.6265 11.8723 25.5792 11.6927L23.6452 12.2022ZM23.6312 11.9741C23.6416 11.8979 23.6669 11.8245 23.7056 11.758L25.4335 12.7652C25.527 12.6048 25.588 12.4275 25.613 12.2435L23.6312 11.9741ZM23.7056 11.758C23.7444 11.6915 23.7958 11.6333 23.857 11.5867L25.0679 13.1786C25.2157 13.0661 25.3399 12.9257 25.4335 12.7652L23.7056 11.758ZM23.857 11.5867C23.9183 11.5402 23.9881 11.5061 24.0625 11.4865L24.572 13.4205C24.7516 13.3732 24.9201 13.291 25.0679 13.1786L23.857 11.5867ZM24.0625 11.4865C24.1369 11.4669 24.2144 11.4622 24.2906 11.4725L24.0212 13.4543C24.2053 13.4793 24.3924 13.4678 24.572 13.4205L24.0625 11.4865ZM24.2906 11.4725C24.3668 11.4829 24.4403 11.5082 24.5068 11.5469L23.4995 13.2747C23.6599 13.3683 23.8372 13.4293 24.0212 13.4543L24.2906 11.4725ZM24.4661 11.5245C23.5511 11.0465 22.5086 10.8693 21.4871 11.0181L21.7754 12.9972C22.3806 12.9091 22.9981 13.014 23.5401 13.2972L24.4661 11.5245ZM21.4362 11.0269C21.5511 11.004 21.6703 11.0161 21.7784 11.0615L21.0036 12.9053C21.2634 13.0145 21.5499 13.0435 21.8263 12.9885L21.4362 11.0269ZM21.7784 11.0615C21.8864 11.1069 21.9784 11.1836 22.0425 11.2817L20.3685 12.376C20.5226 12.6118 20.7439 12.7962 21.0036 12.9053L21.7784 11.0615ZM22.0425 11.2817C22.1067 11.3798 22.14 11.4948 22.1382 11.612L20.1384 11.5817C20.1342 11.8635 20.2143 12.1401 20.3685 12.376L22.0425 11.2817ZM22.1382 11.612C22.1364 11.7292 22.0996 11.8432 22.0326 11.9393L20.3924 10.7948C20.2312 11.0259 20.1427 11.2999 20.1384 11.5817L22.1382 11.612ZM22.0367 11.9334C21.9904 12.0007 21.9305 12.0574 21.8607 12.0999L20.8211 10.3913C20.6495 10.4957 20.5021 10.6352 20.3883 10.8007L22.0367 11.9334ZM21.8607 12.0999C21.791 12.1423 21.713 12.1695 21.632 12.1796L21.3836 10.1951C21.1844 10.2201 20.9927 10.2869 20.8211 10.3913L21.8607 12.0999ZM21.5078 10.1874H19.875V12.1874H21.5078V10.1874ZM19.8748 10.1874C19.0491 10.1875 18.2334 10.0074 17.4845 9.6596L16.642 11.4735C17.6549 11.944 18.7584 12.1876 19.8752 12.1874L19.8748 10.1874ZM17.4845 9.6596C16.7356 9.31179 16.0718 8.80467 15.5392 8.17367L14.0108 9.4636C14.7311 10.3171 15.6291 11.003 16.642 11.4735L17.4845 9.6596ZM13.8801 8.37233C13.5413 9.05163 12.9795 9.59396 12.2887 9.90856L13.1176 11.7287C14.2255 11.2242 15.1265 10.3544 15.6699 9.26494L13.8801 8.37233Z" fill="black" mask="url(#path-3-inside-1_154_13)"/>
</svg>
