<svg width="48" height="42" viewBox="0 0 48 42" fill="none" xmlns="http://www.w3.org/2000/svg">
<path d="M29.8975 26.8198H38.4175V34.0927H29.8975V26.8198Z" stroke="#1EBEB6" stroke-width="2" stroke-linecap="round" stroke-linejoin="round"/>
<path d="M38.5975 1.72913H37.9412C37.1314 1.72913 36.475 2.27618 36.475 2.951V7.74371C36.475 8.41853 37.1314 8.96558 37.9412 8.96558H38.5975C39.4073 8.96558 40.0637 8.41853 40.0637 7.74371V2.951C40.0637 2.27618 39.4073 1.72913 38.5975 1.72913Z" stroke="#1EBEB6" stroke-width="2" stroke-linecap="round" stroke-linejoin="round"/>
<path d="M10.285 1.72913H9.62873C8.81894 1.72913 8.16248 2.27618 8.16248 2.951V7.74371C8.16248 8.41853 8.81894 8.96558 9.62873 8.96558H10.285C11.0948 8.96558 11.7512 8.41853 11.7512 7.74371V2.951C11.7512 2.27618 11.0948 1.72913 10.285 1.72913Z" stroke="#1EBEB6" stroke-width="2" stroke-linecap="round" stroke-linejoin="round"/>
<path d="M11.5625 3.4292H36.475M46.0788 12.7021V39.4334C46.0788 39.8959 45.7538 40.2709 45.3525 40.2709H2.64626C2.24626 40.2709 1.92126 39.8959 1.92126 39.4334M8.16251 3.4292H2.64751C2.24752 3.4292 1.92126 3.8042 1.92126 4.26774V39.4094" stroke="#1EBEB6" stroke-width="2" stroke-linecap="round" stroke-linejoin="round"/>
<path d="M40.0625 3.4292H45.3788C45.7663 3.4292 46.0788 3.8042 46.0788 4.26774V39.4094M1.92126 12.7021H46.0788" stroke="#1EBEB6" stroke-width="2" stroke-linecap="round" stroke-linejoin="round"/>
</svg>
