<svg width="38" height="38" viewBox="0 0 38 38" fill="none" xmlns="http://www.w3.org/2000/svg">
<path d="M22.5625 0V2.375C29.7647 2.375 35.625 8.23531 35.625 15.4375H38C38 6.9255 31.0745 0 22.5625 0ZM10.2719 3.56963C9.63495 3.56748 9.01646 3.78329 8.51912 4.18119L8.46094 4.22869L4.72625 8.08094L4.80581 8.00613C3.57081 9.07013 3.22881 10.7516 3.75962 12.1648C4.76069 15.0504 7.31025 20.6304 12.3441 25.6559C17.3862 30.7052 23.0244 33.1467 25.8139 34.2356L25.8424 34.2451L25.8697 34.2546C26.5681 34.4852 27.3143 34.5311 28.0357 34.3879C28.7572 34.2448 29.4293 33.9174 29.9867 33.4376L30.0224 33.4079L33.7321 29.697C34.7177 28.7114 34.7177 26.9848 33.7321 26.0003L28.8669 21.1292C27.8789 20.1412 26.1523 20.1412 25.1643 21.1292L22.8083 23.4852C21.9652 23.0826 19.8894 22.0388 17.9158 20.1578C15.9707 18.3006 14.9768 16.1559 14.6169 15.3259L16.9919 12.9509C18.0334 11.9094 18.0928 10.1199 16.8922 9.16275L17.0003 9.26369L12.0816 4.22869L12.0258 4.18119C11.5282 3.78303 10.9092 3.56721 10.2719 3.56963ZM22.5625 4.75V7.125C27.1451 7.125 30.875 10.8538 30.875 15.4375H33.25C33.25 9.54513 28.4561 4.75 22.5625 4.75ZM10.2743 5.9375C10.3598 5.9375 10.4433 5.96917 10.5248 6.0325L15.3544 10.9773L15.4126 11.0248C15.3983 11.0129 15.4577 11.1269 15.3128 11.2717L11.8014 14.7844L12.0721 15.5016C12.0721 15.5016 13.4128 19.1449 16.2771 21.8773C19.0938 24.5634 22.5672 26.0312 22.5672 26.0312L23.3071 26.3471L26.8434 22.8095C27.0441 22.61 26.9871 22.61 27.1878 22.8095L32.053 27.6806C32.2549 27.8825 32.2549 27.816 32.053 28.0191L28.4347 31.6374C27.8837 32.1053 27.3149 32.2276 26.6297 32.0008C23.9447 30.951 18.6901 28.652 14.0232 23.978C9.32306 19.2838 6.88631 13.9507 5.99331 11.3667L5.98856 11.3525L5.98144 11.3359C5.80213 10.8609 5.93394 10.1709 6.3555 9.80756L6.39469 9.77194L10.0213 6.0325C10.0927 5.97355 10.1817 5.94011 10.2743 5.9375ZM22.5625 9.5V11.875C24.5266 11.875 26.125 13.4734 26.125 15.4375H28.5C28.5 12.1636 25.8364 9.5 22.5625 9.5Z" fill="#1EBEB6"/>
</svg>
