<svg width="607" height="561" viewBox="0 0 607 561" fill="none" xmlns="http://www.w3.org/2000/svg">
<rect width="607" height="561" fill="#1EBEB6"/>
<path d="M274.603 245V272.692C274.603 276.538 273.251 279.808 270.545 282.5C267.839 285.192 264.554 286.538 260.689 286.538H232.859C228.993 286.538 225.708 285.192 223.002 282.5C220.297 279.808 218.944 276.538 218.944 272.692V221.923C218.944 216.923 219.922 212.151 221.879 207.608C223.836 203.065 226.481 199.135 229.815 195.817C233.149 192.5 237.098 189.868 241.664 187.921C246.23 185.974 251.025 185 256.05 185H260.689C261.945 185 263.032 185.457 263.95 186.37C264.868 187.284 265.327 188.365 265.327 189.615V198.846C265.327 200.096 264.868 201.178 263.95 202.091C263.032 203.005 261.945 203.462 260.689 203.462H256.05C250.929 203.462 246.556 205.264 242.932 208.87C239.309 212.476 237.497 216.827 237.497 221.923V224.231C237.497 226.154 238.173 227.788 239.526 229.135C240.879 230.481 242.522 231.154 244.454 231.154H260.689C264.554 231.154 267.839 232.5 270.545 235.192C273.251 237.885 274.603 241.154 274.603 245ZM339.54 245V272.692C339.54 276.538 338.187 279.808 335.481 282.5C332.776 285.192 329.49 286.538 325.625 286.538H297.795C293.93 286.538 290.644 285.192 287.939 282.5C285.233 279.808 283.88 276.538 283.88 272.692V221.923C283.88 216.923 284.858 212.151 286.815 207.608C288.772 203.065 291.417 199.135 294.751 195.817C298.085 192.5 302.035 189.868 306.601 187.921C311.166 185.974 315.962 185 320.987 185H325.625C326.881 185 327.968 185.457 328.886 186.37C329.804 187.284 330.263 188.365 330.263 189.615V198.846C330.263 200.096 329.804 201.178 328.886 202.091C327.968 203.005 326.881 203.462 325.625 203.462H320.987C315.865 203.462 311.492 205.264 307.869 208.87C304.245 212.476 302.433 216.827 302.433 221.923V224.231C302.433 226.154 303.11 227.788 304.463 229.135C305.815 230.481 307.458 231.154 309.391 231.154H325.625C329.49 231.154 332.776 232.5 335.481 235.192C338.187 237.885 339.54 241.154 339.54 245Z" fill="#4BCBC5"/>
</svg>
