<svg width="612" height="569" viewBox="0 0 612 569" fill="none" xmlns="http://www.w3.org/2000/svg">
<g filter="url(#filter0_d_159_30)">
<rect x="4" width="604" height="561" fill="#1EBEB6"/>
<path d="M335.385 248V275.692C335.385 279.538 334.038 282.808 331.346 285.5C328.654 288.192 325.385 289.538 321.538 289.538H293.846C290 289.538 286.731 288.192 284.038 285.5C281.346 282.808 280 279.538 280 275.692V224.923C280 219.923 280.974 215.151 282.921 210.608C284.868 206.065 287.5 202.135 290.817 198.817C294.135 195.5 298.065 192.868 302.608 190.921C307.151 188.974 311.923 188 316.923 188H321.538C322.788 188 323.87 188.457 324.784 189.37C325.697 190.284 326.154 191.365 326.154 192.615V201.846C326.154 203.096 325.697 204.178 324.784 205.091C323.87 206.005 322.788 206.462 321.538 206.462H316.923C311.827 206.462 307.476 208.264 303.87 211.87C300.264 215.476 298.462 219.827 298.462 224.923V227.231C298.462 229.154 299.135 230.788 300.481 232.135C301.827 233.481 303.462 234.154 305.385 234.154H321.538C325.385 234.154 328.654 235.5 331.346 238.192C334.038 240.885 335.385 244.154 335.385 248ZM400 248V275.692C400 279.538 398.654 282.808 395.962 285.5C393.269 288.192 390 289.538 386.154 289.538H358.462C354.615 289.538 351.346 288.192 348.654 285.5C345.962 282.808 344.615 279.538 344.615 275.692V224.923C344.615 219.923 345.589 215.151 347.536 210.608C349.483 206.065 352.115 202.135 355.433 198.817C358.75 195.5 362.68 192.868 367.224 190.921C371.767 188.974 376.538 188 381.538 188H386.154C387.404 188 388.486 188.457 389.399 189.37C390.312 190.284 390.769 191.365 390.769 192.615V201.846C390.769 203.096 390.312 204.178 389.399 205.091C388.486 206.005 387.404 206.462 386.154 206.462H381.538C376.442 206.462 372.091 208.264 368.486 211.87C364.88 215.476 363.077 219.827 363.077 224.923V227.231C363.077 229.154 363.75 230.788 365.096 232.135C366.442 233.481 368.077 234.154 370 234.154H386.154C390 234.154 393.269 235.5 395.962 238.192C398.654 240.885 400 244.154 400 248Z" fill="#4BCBC5"/>
</g>
<defs>
<filter id="filter0_d_159_30" x="0" y="0" width="612" height="569" filterUnits="userSpaceOnUse" color-interpolation-filters="sRGB">
<feFlood flood-opacity="0" result="BackgroundImageFix"/>
<feColorMatrix in="SourceAlpha" type="matrix" values="0 0 0 0 0 0 0 0 0 0 0 0 0 0 0 0 0 0 127 0" result="hardAlpha"/>
<feOffset dy="4"/>
<feGaussianBlur stdDeviation="2"/>
<feComposite in2="hardAlpha" operator="out"/>
<feColorMatrix type="matrix" values="0 0 0 0 0 0 0 0 0 0 0 0 0 0 0 0 0 0 0.25 0"/>
<feBlend mode="normal" in2="BackgroundImageFix" result="effect1_dropShadow_159_30"/>
<feBlend mode="normal" in="SourceGraphic" in2="effect1_dropShadow_159_30" result="shape"/>
</filter>
</defs>
</svg>
